<svg xmlns="http://www.w3.org/2000/svg" xmlns:xlink="http://www.w3.org/1999/xlink" id="processonSvg1000" viewBox="18.75 25.0 1655.078125 687.5000000540499" width="1655.078125" height="687.5000000540499"><defs id="ProcessOnDefs1001"><marker id="ProcessOnMarker1025" markerUnits="userSpaceOnUse" orient="auto" markerWidth="16.23606797749979" markerHeight="10.550836550532098" viewBox="-1.0 -1.3763819204711736 16.23606797749979 10.550836550532098" refX="-1.0" refY="3.8990363547948754"><path id="ProcessOnPath1026" d="M12.0 3.8990363547948754L0.0 7.798072709589751V0.0Z" stroke="#323232" stroke-width="2.0" fill="#323232" transform="matrix(1.0,0.0,0.0,1.0,0.0,0.0)"/></marker><marker id="ProcessOnMarker1045" markerUnits="userSpaceOnUse" orient="auto" markerWidth="16.23606797749979" markerHeight="10.550836550532098" viewBox="-1.0 -1.3763819204711736 16.23606797749979 10.550836550532098" refX="15.23606797749979" refY="3.8990363547948754"><path id="ProcessOnPath1046" d="M12.0 3.8990363547948754L0.0 7.798072709589751V0.0Z" stroke="#323232" stroke-width="2.0" fill="#323232" transform="matrix(-1.0,1.2246467991473532E-16,-1.2246467991473532E-16,-1.0,14.23606797749979,7.798072709589751)"/></marker><marker id="ProcessOnMarker1047" markerUnits="userSpaceOnUse" orient="auto" markerWidth="16.23606797749979" markerHeight="10.550836550532098" viewBox="-1.0 -1.3763819204711736 16.23606797749979 10.550836550532098" refX="-1.0" refY="3.8990363547948754"><path id="ProcessOnPath1048" d="M12.0 3.8990363547948754L0.0 7.798072709589751V0.0Z" stroke="#323232" stroke-width="2.0" fill="#323232" transform="matrix(1.0,0.0,0.0,1.0,0.0,0.0)"/></marker><marker id="ProcessOnMarker1051" markerUnits="userSpaceOnUse" orient="auto" markerWidth="16.23606797749979" markerHeight="10.550836550532098" viewBox="-1.0 -1.3763819204711736 16.23606797749979 10.550836550532098" refX="15.23606797749979" refY="3.8990363547948754"><path id="ProcessOnPath1052" d="M12.0 3.8990363547948754L0.0 7.798072709589751V0.0Z" stroke="#323232" stroke-width="2.0" fill="#323232" transform="matrix(-1.0,1.2246467991473532E-16,-1.2246467991473532E-16,-1.0,14.23606797749979,7.798072709589751)"/></marker><marker id="ProcessOnMarker1053" markerUnits="userSpaceOnUse" orient="auto" markerWidth="16.23606797749979" markerHeight="10.550836550532098" viewBox="-1.0 -1.3763819204711736 16.23606797749979 10.550836550532098" refX="-1.0" refY="3.8990363547948754"><path id="ProcessOnPath1054" d="M12.0 3.8990363547948754L0.0 7.798072709589751V0.0Z" stroke="#323232" stroke-width="2.0" fill="#323232" transform="matrix(1.0,0.0,0.0,1.0,0.0,0.0)"/></marker><marker id="ProcessOnMarker1073" markerUnits="userSpaceOnUse" orient="auto" markerWidth="16.23606797749979" markerHeight="10.550836550532098" viewBox="-1.0 -1.3763819204711736 16.23606797749979 10.550836550532098" refX="-1.0" refY="3.8990363547948754"><path id="ProcessOnPath1074" d="M12.0 3.8990363547948754L0.0 7.798072709589751V0.0Z" stroke="#323232" stroke-width="2.0" fill="#323232" transform="matrix(1.0,0.0,0.0,1.0,0.0,0.0)"/></marker><marker id="ProcessOnMarker1080" markerUnits="userSpaceOnUse" orient="auto" markerWidth="16.23606797749979" markerHeight="10.550836550532098" viewBox="-1.0 -1.3763819204711736 16.23606797749979 10.550836550532098" refX="-1.0" refY="3.8990363547948754"><path id="ProcessOnPath1081" d="M12.0 3.8990363547948754L0.0 7.798072709589751V0.0Z" stroke="#323232" stroke-width="2.0" fill="#323232" transform="matrix(1.0,0.0,0.0,1.0,0.0,0.0)"/></marker><marker id="ProcessOnMarker1087" markerUnits="userSpaceOnUse" orient="auto" markerWidth="16.23606797749979" markerHeight="10.550836550532098" viewBox="-1.0 -1.3763819204711736 16.23606797749979 10.550836550532098" refX="-1.0" refY="3.8990363547948754"><path id="ProcessOnPath1088" d="M12.0 3.8990363547948754L0.0 7.798072709589751V0.0Z" stroke="#323232" stroke-width="2.0" fill="#323232" transform="matrix(1.0,0.0,0.0,1.0,0.0,0.0)"/></marker><marker id="ProcessOnMarker1103" markerUnits="userSpaceOnUse" orient="auto" markerWidth="16.23606797749979" markerHeight="10.550836550532098" viewBox="-1.0 -1.3763819204711736 16.23606797749979 10.550836550532098" refX="-1.0" refY="3.8990363547948754"><path id="ProcessOnPath1104" d="M12.0 3.8990363547948754L0.0 7.798072709589751V0.0Z" stroke="#323232" stroke-width="2.0" fill="#323232" transform="matrix(1.0,0.0,0.0,1.0,0.0,0.0)"/></marker><marker id="ProcessOnMarker1107" markerUnits="userSpaceOnUse" orient="auto" markerWidth="16.23606797749979" markerHeight="10.550836550532098" viewBox="-1.0 -1.3763819204711736 16.23606797749979 10.550836550532098" refX="-1.0" refY="3.8990363547948754"><path id="ProcessOnPath1108" d="M12.0 3.8990363547948754L0.0 7.798072709589751V0.0Z" stroke="#323232" stroke-width="2.0" fill="#323232" transform="matrix(1.0,0.0,0.0,1.0,0.0,0.0)"/></marker><marker id="ProcessOnMarker1129" markerUnits="userSpaceOnUse" orient="auto" markerWidth="16.23606797749979" markerHeight="10.550836550532098" viewBox="-1.0 -1.3763819204711736 16.23606797749979 10.550836550532098" refX="15.23606797749979" refY="3.8990363547948754"><path id="ProcessOnPath1130" d="M12.0 3.8990363547948754L0.0 7.798072709589751V0.0Z" stroke="#323232" stroke-width="2.0" fill="#323232" transform="matrix(-1.0,1.2246467991473532E-16,-1.2246467991473532E-16,-1.0,14.23606797749979,7.798072709589751)"/></marker><marker id="ProcessOnMarker1131" markerUnits="userSpaceOnUse" orient="auto" markerWidth="16.23606797749979" markerHeight="10.550836550532098" viewBox="-1.0 -1.3763819204711736 16.23606797749979 10.550836550532098" refX="-1.0" refY="3.8990363547948754"><path id="ProcessOnPath1132" d="M12.0 3.8990363547948754L0.0 7.798072709589751V0.0Z" stroke="#323232" stroke-width="2.0" fill="#323232" transform="matrix(1.0,0.0,0.0,1.0,0.0,0.0)"/></marker></defs><g id="ProcessOnG1002"><path id="ProcessOnPath1003" d="M18.75 25.0H1673.828125V712.5000000540499H18.75V25.0Z" fill="#ffffff"/><g id="ProcessOnG1004"><g id="ProcessOnG1005" transform="matrix(1.0,0.0,0.0,1.0,613.75,233.7508856087723)" opacity="1.0"><path id="ProcessOnPath1006" d="M0.0 4.0Q0.0 0.0 4.0 0.0L673.5 0.0Q677.5 0.0 677.5 4.0L677.5 454.74911444527766Q677.5 458.74911444527766 673.5 458.74911444527766L4.0 458.74911444527766Q0.0 458.74911444527766 0.0 454.74911444527766Z" stroke="#000000" stroke-width="2.0" stroke-dasharray="none" opacity="1.0" fill="#e6ffcc"/></g><g id="ProcessOnG1007" transform="matrix(1.0,0.0,0.0,1.0,250.99032747745514,371.00834437779014)" opacity="1.0"><path id="ProcessOnPath1008" d="M0.0 4.0Q0.0 0.0 4.0 0.0L251.88539756461978 0.0Q255.88539756461978 0.0 255.88539756461978 4.0L255.88539756461978 317.49165562220986Q255.88539756461978 321.49165562220986 251.88539756461978 321.49165562220986L4.0 321.49165562220986Q0.0 321.49165562220986 0.0 317.49165562220986Z" stroke="#323232" stroke-width="2.0" stroke-dasharray="none" opacity="1.0" fill="#ffff99"/></g><g id="ProcessOnG1009" transform="matrix(1.0,0.0,0.0,1.0,110.4133782409398,153.39285714285717)" opacity="1.0"><path id="ProcessOnPath1010" d="M0.0 4.0Q0.0 0.0 4.0 0.0L222.61473994143302 0.0Q226.61473994143302 0.0 226.61473994143302 4.0L226.61473994143302 168.83761160714283Q226.61473994143302 172.83761160714283 222.61473994143302 172.83761160714283L4.0 172.83761160714283Q0.0 172.83761160714283 0.0 168.83761160714283Z" stroke="#323232" stroke-width="2.0" stroke-dasharray="none" opacity="1.0" fill="#ccffe6"/></g><g id="ProcessOnG1011" transform="matrix(1.0,0.0,0.0,1.0,163.09603888154797,167.5)" opacity="1.0"><path id="ProcessOnPath1012" d="M0.0 4.0Q0.0 0.0 4.0 0.0L117.25 0.0Q121.25 0.0 121.25 4.0L121.25 46.0Q121.25 50.0 117.25 50.0L4.0 50.0Q0.0 50.0 0.0 46.0Z" stroke="#323232" stroke-width="2.0" stroke-dasharray="none" opacity="1.0" fill="#ffffcc"/><g id="ProcessOnG1013" transform="matrix(1.0,0.0,0.0,1.0,10.0,16.25)"><text id="ProcessOnText1014" fill="#000000" font-size="14" x="49.625" y="14.350000000000001" font-family="微软雅黑" font-weight="normal" font-style="normal" text-decoration="none" family="微软雅黑" text-anchor="middle" size="14">Properties</text></g></g><g id="ProcessOnG1015" transform="matrix(1.0,0.0,0.0,1.0,163.07714653068356,236.231689453125)" opacity="1.0"><path id="ProcessOnPath1016" d="M0.0 4.0Q0.0 0.0 4.0 0.0L117.25 0.0Q121.25 0.0 121.25 4.0L121.25 46.0Q121.25 50.0 117.25 50.0L4.0 50.0Q0.0 50.0 0.0 46.0Z" stroke="#323232" stroke-width="2.0" stroke-dasharray="none" opacity="1.0" fill="#ffe6cc"/><g id="ProcessOnG1017" transform="matrix(1.0,0.0,0.0,1.0,10.0,16.25)"><text id="ProcessOnText1018" fill="#000000" font-size="14" x="49.625" y="14.350000000000001" font-family="微软雅黑" font-weight="normal" font-style="normal" text-decoration="none" family="微软雅黑" text-anchor="middle" size="14">ClientStatus</text></g></g><g id="ProcessOnG1019" transform="matrix(1.0,0.0,0.0,1.0,38.75,45.0)" opacity="1.0"><path id="ProcessOnPath1020" d="M0.0 0.0L155.0 0.0L155.0 32.5L0.0 32.5Z" stroke="#323232" stroke-width="2.0" stroke-dasharray="none" opacity="1.0" fill="#ffffcc"/><g id="ProcessOnG1021" transform="matrix(1.0,0.0,0.0,1.0,10.0,8.125)"><text id="ProcessOnText1022" fill="#000000" font-size="13" x="66.5" y="13.325" font-family="微软雅黑" font-weight="normal" font-style="normal" text-decoration="none" family="微软雅黑" text-anchor="middle" size="13">chatroom.properties</text></g></g><g id="ProcessOnG1023"><path id="ProcessOnPath1024" d="M116.25 77.5L116.25 122.5L223.72103888154797 122.5L223.72103888154797 152.2639320225002" stroke="#323232" stroke-width="2.0" stroke-dasharray="none" fill="none" marker-end="url(#ProcessOnMarker1025)"/></g><g id="ProcessOnG1027" transform="matrix(1.0,0.0,0.0,1.0,143.69749611044037,286.23199462890625)" opacity="1.0"><path id="ProcessOnPath1028" d="M0.0 0.0L160.0 0.0L160.0 40.0L0.0 40.0Z" stroke="none" stroke-width="0.0" stroke-dasharray="none" opacity="1.0" fill="none"/><g id="ProcessOnG1029" transform="matrix(1.0,0.0,0.0,1.0,0.0,10.0)"><text id="ProcessOnText1030" fill="#000000" font-size="16" x="79.0" y="16.4" font-family="微软雅黑" font-weight="bold" font-style="normal" text-decoration="none" family="微软雅黑" text-anchor="middle" size="16">Store</text></g></g><g id="ProcessOnG1031" transform="matrix(1.0,0.0,0.0,1.0,89.1547462088721,533.43212890625)" opacity="1.0"><path id="ProcessOnPath1032" d="M0.0 4.0Q0.0 0.0 4.0 0.0L96.0 0.0Q100.0 0.0 100.0 4.0L100.0 66.0Q100.0 70.0 96.0 70.0L4.0 70.0Q0.0 70.0 0.0 66.0Z" stroke="#323232" stroke-width="2.0" stroke-dasharray="none" opacity="1.0" fill="#ff99ff"/><g id="ProcessOnG1033" transform="matrix(1.0,0.0,0.0,1.0,10.0,26.875)"><text id="ProcessOnText1034" fill="#000000" font-size="13" x="39.0" y="13.325" font-family="微软雅黑" font-weight="bold" font-style="normal" text-decoration="none" family="微软雅黑" text-anchor="middle" size="13">GUI</text></g></g><g id="ProcessOnG1035" transform="matrix(1.0,0.0,0.0,1.0,320.39640125632286,532.4755554199219)" opacity="1.0"><path id="ProcessOnPath1036" d="M0.0 4.0Q0.0 0.0 4.0 0.0L112.0 0.0Q116.0 0.0 116.0 4.0L116.0 67.0Q116.0 71.0 112.0 71.0L4.0 71.0Q0.0 71.0 0.0 67.0Z" stroke="#323232" stroke-width="2.0" stroke-dasharray="none" opacity="1.0" fill="#ffb366"/><g id="ProcessOnG1037" transform="matrix(1.0,0.0,0.0,1.0,10.0,27.375)"><text id="ProcessOnText1038" fill="#000000" font-size="13" x="47.0" y="13.325" font-family="微软雅黑" font-weight="normal" font-style="normal" text-decoration="none" family="微软雅黑" text-anchor="middle" size="13">GUI-Service</text></g></g><g id="ProcessOnG1039" transform="matrix(1.0,0.0,0.0,1.0,288.396421007812,404.53125)" opacity="1.0"><path id="ProcessOnPath1040" d="M0.0 4.0Q0.0 0.0 4.0 0.0L176.0 0.0Q180.0 0.0 180.0 4.0L180.0 90.0Q180.0 94.0 176.0 94.0L4.0 94.0Q0.0 94.0 0.0 90.0Z" stroke="#323232" stroke-width="2.0" stroke-dasharray="none" opacity="1.0" fill="#ffb366"/><g id="ProcessOnG1041" transform="matrix(1.0,0.0,0.0,1.0,10.0,35.125)"><text id="ProcessOnText1042" fill="#000000" font-size="19" x="79.0" y="19.475" font-family="微软雅黑" font-weight="normal" font-style="normal" text-decoration="none" family="微软雅黑" text-anchor="middle" size="19">Client-Service</text></g></g><g id="ProcessOnG1043"><path id="ProcessOnPath1044" d="M223.7207482116563 341.4665367274998L223.7207482116563 451.53125L273.16035303031225 451.53125" stroke="#323232" stroke-width="2.0" stroke-dasharray="none" fill="none" marker-start="url(#ProcessOnMarker1045)" marker-end="url(#ProcessOnMarker1047)"/></g><g id="ProcessOnG1049"><path id="ProcessOnPath1050" d="M204.3908141863719 568.43212890625L254.77557373259748 568.43212890625L254.77557373259748 567.9755554199219L305.1603332788231 567.9755554199219" stroke="#323232" stroke-width="2.0" stroke-dasharray="none" fill="none" marker-start="url(#ProcessOnMarker1051)" marker-end="url(#ProcessOnMarker1053)"/></g><g id="ProcessOnG1055" transform="matrix(1.0,0.0,0.0,1.0,648.9724788665771,371.35418047223766)" opacity="1.0"><path id="ProcessOnPath1056" d="M0.0 0.0L190.25 0.0L190.25 31.625L0.0 31.625Z" stroke="#323232" stroke-width="2.0" stroke-dasharray="none" opacity="1.0" fill="#66b2ff"/><g id="ProcessOnG1057" transform="matrix(1.0,0.0,0.0,1.0,10.0,7.0625)"><text id="ProcessOnText1058" fill="#000000" font-size="14" x="84.125" y="14.350000000000001" font-family="微软雅黑" font-weight="normal" font-style="normal" text-decoration="none" family="微软雅黑" text-anchor="middle" size="14">Send-Msg-Queue</text></g></g><g id="ProcessOnG1059" transform="matrix(1.0,0.0,0.0,1.0,648.9614162873477,497.2053381684236)" opacity="1.0"><path id="ProcessOnPath1060" d="M0.0 4.0Q0.0 0.0 4.0 0.0L160.736328125 0.0Q164.736328125 0.0 164.736328125 4.0L164.736328125 66.75874328613281Q164.736328125 70.75874328613281 160.736328125 70.75874328613281L4.0 70.75874328613281Q0.0 70.75874328613281 0.0 66.75874328613281Z" stroke="#323232" stroke-width="2.0" stroke-dasharray="none" opacity="1.0" fill="#ffff99"/><g id="ProcessOnG1061" transform="matrix(1.0,0.0,0.0,1.0,10.0,26.629371643066406)"><text id="ProcessOnText1062" fill="#000000" font-size="14" x="71.3681640625" y="14.350000000000001" font-family="微软雅黑" font-weight="normal" font-style="normal" text-decoration="none" family="微软雅黑" text-anchor="middle" size="14">Recv-Handle-Thread</text></g></g><g id="ProcessOnG1063" transform="matrix(1.0,0.0,0.0,1.0,857.75,573.3368682861328)" opacity="1.0"><path id="ProcessOnPath1064" d="M0.0 0.0L174.75 0.0L174.75 32.36625671386719L0.0 32.36625671386719Z" stroke="#323232" stroke-width="2.0" stroke-dasharray="none" opacity="1.0" fill="#66b2ff"/><g id="ProcessOnG1065" transform="matrix(1.0,0.0,0.0,1.0,10.0,7.433128356933594)"><text id="ProcessOnText1066" fill="#000000" font-size="14" x="76.375" y="14.350000000000001" font-family="微软雅黑" font-weight="normal" font-style="normal" text-decoration="none" family="微软雅黑" text-anchor="middle" size="14">Recv-Msg-Queue</text></g></g><g id="ProcessOnG1067" transform="matrix(1.0,0.0,0.0,1.0,298.93302625976503,635.0)" opacity="1.0"><path id="ProcessOnPath1068" d="M0.0 0.0L160.0 0.0L160.0 40.0L0.0 40.0Z" stroke="none" stroke-width="0.0" stroke-dasharray="none" opacity="1.0" fill="none"/><g id="ProcessOnG1069" transform="matrix(1.0,0.0,0.0,1.0,0.0,10.0)"><text id="ProcessOnText1070" fill="#000000" font-size="16" x="79.0" y="16.4" font-family="微软雅黑" font-weight="bold" font-style="normal" text-decoration="none" family="微软雅黑" text-anchor="middle" size="16">Service</text></g></g><g id="ProcessOnG1071"><path id="ProcessOnPath1072" d="M468.396421007812 451.53125C545.0781116332084 451.53125 572.2907882411807 387.16668047223766 633.7364108890773 387.16668047223766" stroke="#323232" stroke-width="2.0" stroke-dasharray="none" fill="none" marker-end="url(#ProcessOnMarker1073)"/><g id="ProcessOnG1075" transform="matrix(1.0,0.0,0.0,1.0,556.7799414400071,410.59896523611883)"><path id="ProcessOnPath1076" d="M0 0H51.0V17.5H0Z" fill="#fff" transform="matrix(1.0,0.0,0.0,1.0,-25.5,0.0)"/><text id="ProcessOnText1077" fill="#000000" font-size="14" x="0.0" y="14.350000000000001" font-family="微软雅黑" font-weight="normal" font-style="normal" text-decoration="none" family="微软雅黑" text-anchor="middle" size="14">commit</text></g></g><g id="ProcessOnG1078"><path id="ProcessOnPath1079" d="M648.9614162873477 532.58470981149C569.7923507450928 532.58470981149 547.5654865500669 451.53125 483.6324889853118 451.53125" stroke="#323232" stroke-width="2.0" stroke-dasharray="none" fill="none" marker-end="url(#ProcessOnMarker1080)"/><g id="ProcessOnG1082" transform="matrix(1.0,0.0,0.0,1.0,560.5834271447674,483.307979905745)"><path id="ProcessOnPath1083" d="M0 0H47.0V17.5H0Z" fill="#fff" transform="matrix(1.0,0.0,0.0,1.0,-23.5,0.0)"/><text id="ProcessOnText1084" fill="#000000" font-size="14" x="0.0" y="14.350000000000001" font-family="微软雅黑" font-weight="normal" font-style="normal" text-decoration="none" family="微软雅黑" text-anchor="middle" size="14">handle</text></g></g><g id="ProcessOnG1085"><path id="ProcessOnPath1086" d="M857.75 589.5199966430664C828.9549223402229 589.5199966430664 842.4928220721248 532.58470981149 828.9338123898475 532.58470981149" stroke="#323232" stroke-width="2.0" stroke-dasharray="none" fill="none" marker-end="url(#ProcessOnMarker1087)"/></g><g id="ProcessOnG1089" transform="matrix(1.0,0.0,0.0,1.0,1083.6786348577589,274.0043716430664)" opacity="1.0"><path id="ProcessOnPath1090" d="M0.0 4.0Q0.0 0.0 4.0 0.0L160.736328125 0.0Q164.736328125 0.0 164.736328125 4.0L164.736328125 66.75874328613281Q164.736328125 70.75874328613281 160.736328125 70.75874328613281L4.0 70.75874328613281Q0.0 70.75874328613281 0.0 66.75874328613281Z" stroke="#323232" stroke-width="2.0" stroke-dasharray="none" opacity="1.0" fill="#ffff99"/><g id="ProcessOnG1091" transform="matrix(1.0,0.0,0.0,1.0,10.0,26.004371643066406)"><text id="ProcessOnText1092" fill="#000000" font-size="15" x="71.3681640625" y="15.375" font-family="微软雅黑" font-weight="normal" font-style="normal" text-decoration="none" family="微软雅黑" text-anchor="middle" size="15">Send-Thread</text></g></g><g id="ProcessOnG1093" transform="matrix(1.0,0.0,0.0,1.0,1083.6816866155714,554.137128919363)" opacity="1.0"><path id="ProcessOnPath1094" d="M0.0 4.0Q0.0 0.0 4.0 0.0L160.736328125 0.0Q164.736328125 0.0 164.736328125 4.0L164.736328125 66.75874328613281Q164.736328125 70.75874328613281 160.736328125 70.75874328613281L4.0 70.75874328613281Q0.0 70.75874328613281 0.0 66.75874328613281Z" stroke="#323232" stroke-width="2.0" stroke-dasharray="none" opacity="1.0" fill="#ffff99"/><g id="ProcessOnG1095" transform="matrix(1.0,0.0,0.0,1.0,10.0,26.629371643066406)"><text id="ProcessOnText1096" fill="#000000" font-size="14" x="71.3681640625" y="14.350000000000001" font-family="微软雅黑" font-weight="normal" font-style="normal" text-decoration="none" family="微软雅黑" text-anchor="middle" size="14">Recv-Thread</text></g></g><g id="ProcessOnG1097" transform="matrix(1.0,0.0,0.0,1.0,1083.6667330022901,416.18125243697847)" opacity="1.0"><path id="ProcessOnPath1098" d="M0.0 4.0Q0.0 0.0 4.0 0.0L160.736328125 0.0Q164.736328125 0.0 164.736328125 4.0L164.736328125 66.75874328613281Q164.736328125 70.75874328613281 160.736328125 70.75874328613281L4.0 70.75874328613281Q0.0 70.75874328613281 0.0 66.75874328613281Z" stroke="#323232" stroke-width="2.0" stroke-dasharray="none" opacity="1.0" fill="#ffff99"/><g id="ProcessOnG1099" transform="matrix(1.0,0.0,0.0,1.0,10.0,26.629371643066406)"><text id="ProcessOnText1100" fill="#000000" font-size="14" x="71.3681640625" y="14.350000000000001" font-family="微软雅黑" font-weight="normal" font-style="normal" text-decoration="none" family="微软雅黑" text-anchor="middle" size="14">Echo-Thread</text></g></g><g id="ProcessOnG1101"><path id="ProcessOnPath1102" d="M1083.6816866155714 589.5165005624294C1063.2090119215814 589.5165005624294 1052.97267469399 589.5199966430664 1047.7360679774997 589.5199966430664" stroke="#323232" stroke-width="2.0" stroke-dasharray="none" fill="none" marker-end="url(#ProcessOnMarker1103)"/></g><g id="ProcessOnG1105"><path id="ProcessOnPath1106" d="M839.2224788665771 387.16668047223766C941.8355365302351 387.16668047223766 981.0655771941009 309.3837432861328 1068.4425668802592 309.3837432861328" stroke="#323232" stroke-width="2.0" stroke-dasharray="none" fill="none" marker-end="url(#ProcessOnMarker1107)"/></g><g id="ProcessOnG1109" transform="matrix(1.0,0.0,0.0,1.0,881.25,641.25)" opacity="1.0"><path id="ProcessOnPath1110" d="M0.0 0.0L160.0 0.0L160.0 40.0L0.0 40.0Z" stroke="none" stroke-width="0.0" stroke-dasharray="none" opacity="1.0" fill="none"/><g id="ProcessOnG1111" transform="matrix(1.0,0.0,0.0,1.0,0.0,10.0)"><text id="ProcessOnText1112" fill="#000000" font-size="16" x="79.0" y="16.4" font-family="微软雅黑" font-weight="bold" font-style="normal" text-decoration="none" family="微软雅黑" text-anchor="middle" size="16">Server</text></g></g><g id="ProcessOnG1113" transform="matrix(1.0,0.0,0.0,1.0,1406.328125,376.21433284145104)" opacity="1.0"><path id="ProcessOnPath1114" d="M0.0 4.0Q0.0 0.0 4.0 0.0L243.5 0.0Q247.5 0.0 247.5 4.0L247.5 169.12124816008975Q247.5 173.12124816008975 243.5 173.12124816008975L4.0 173.12124816008975Q0.0 173.12124816008975 0.0 169.12124816008975Z" stroke="#323232" stroke-width="2.0" stroke-dasharray="none" opacity="1.0" fill="#ffcccc"/></g><g id="ProcessOnG1115" transform="matrix(1.0,0.0,0.0,1.0,1467.59765625,387.5)" opacity="1.0"><path id="ProcessOnPath1116" d="M0.0 4.0Q0.0 0.0 4.0 0.0L128.5 0.0Q132.5 0.0 132.5 4.0L132.5 43.5Q132.5 47.5 128.5 47.5L4.0 47.5Q0.0 47.5 0.0 43.5Z" stroke="#323232" stroke-width="2.0" stroke-dasharray="none" opacity="1.0" fill="#ff6666"/><g id="ProcessOnG1117" transform="matrix(1.0,0.0,0.0,1.0,10.0,13.75)"><text id="ProcessOnText1118" fill="#000000" font-size="16" x="55.25" y="16.4" font-family="微软雅黑" font-weight="normal" font-style="normal" text-decoration="none" family="微软雅黑" text-anchor="middle" size="16">Send</text></g></g><g id="ProcessOnG1119" transform="matrix(1.0,0.0,0.0,1.0,1473.7158203125,452.0849304199219)" opacity="1.0"><path id="ProcessOnPath1120" d="M0.0 4.0Q0.0 0.0 4.0 0.0L125.6875 0.0Q129.6875 0.0 129.6875 4.0L129.6875 38.524444580078125Q129.6875 42.524444580078125 125.6875 42.524444580078125L4.0 42.524444580078125Q0.0 42.524444580078125 0.0 38.524444580078125Z" stroke="#323232" stroke-width="2.0" stroke-dasharray="none" opacity="1.0" fill="#ff6666"/><g id="ProcessOnG1121" transform="matrix(1.0,0.0,0.0,1.0,10.0,11.887222290039062)"><text id="ProcessOnText1122" fill="#000000" font-size="15" x="53.84375" y="15.375" font-family="微软雅黑" font-weight="normal" font-style="normal" text-decoration="none" family="微软雅黑" text-anchor="middle" size="15">Recvice</text></g></g><g id="ProcessOnG1123" transform="matrix(1.0,0.0,0.0,1.0,1453.84765625,505.3282923528126)" opacity="1.0"><path id="ProcessOnPath1124" d="M0.0 0.0L160.0 0.0L160.0 40.0L0.0 40.0Z" stroke="none" stroke-width="0.0" stroke-dasharray="none" opacity="1.0" fill="none"/><g id="ProcessOnG1125" transform="matrix(1.0,0.0,0.0,1.0,0.0,10.625)"><text id="ProcessOnText1126" fill="#000000" font-size="15" x="79.0" y="15.375" font-family="微软雅黑" font-weight="bold" font-style="normal" text-decoration="none" family="微软雅黑" text-anchor="middle" size="15">DatagramSocket</text></g></g><g id="ProcessOnG1127"><path id="ProcessOnPath1128" d="M1391.0920570225003 462.77495692149586L1348.7890625 462.77495692149586L1348.7890625 463.12544283141114L1306.4860679774997 463.12544283141114" stroke="#323232" stroke-width="2.0" stroke-dasharray="none" fill="none" marker-start="url(#ProcessOnMarker1129)" marker-end="url(#ProcessOnMarker1131)"/></g></g></g></svg>