<svg xmlns="http://www.w3.org/2000/svg" xmlns:xlink="http://www.w3.org/1999/xlink" id="processonSvg1000" viewBox="25.0 41.25 2099.2857142857147 770.9660380592092" width="2099.2857142857147" height="770.9660380592092"><defs id="ProcessOnDefs1001"><marker id="ProcessOnMarker1039" markerUnits="userSpaceOnUse" orient="auto" markerWidth="16.23606797749979" markerHeight="10.550836550532098" viewBox="-1.0 -1.3763819204711736 16.23606797749979 10.550836550532098" refX="-1.0" refY="3.8990363547948754"><path id="ProcessOnPath1040" d="M12.0 3.8990363547948754L0.0 7.798072709589751V0.0Z" stroke="#323232" stroke-width="2.0" fill="#323232" transform="matrix(1.0,0.0,0.0,1.0,0.0,0.0)"/></marker><marker id="ProcessOnMarker1109" markerUnits="userSpaceOnUse" orient="auto" markerWidth="16.23606797749979" markerHeight="10.550836550532098" viewBox="-1.0 -1.3763819204711736 16.23606797749979 10.550836550532098" refX="15.23606797749979" refY="3.8990363547948754"><path id="ProcessOnPath1110" d="M12.0 3.8990363547948754L0.0 7.798072709589751V0.0Z" stroke="#323232" stroke-width="2.0" fill="#323232" transform="matrix(-1.0,1.2246467991473532E-16,-1.2246467991473532E-16,-1.0,14.23606797749979,7.798072709589751)"/></marker><marker id="ProcessOnMarker1111" markerUnits="userSpaceOnUse" orient="auto" markerWidth="16.23606797749979" markerHeight="10.550836550532098" viewBox="-1.0 -1.3763819204711736 16.23606797749979 10.550836550532098" refX="-1.0" refY="3.8990363547948754"><path id="ProcessOnPath1112" d="M12.0 3.8990363547948754L0.0 7.798072709589751V0.0Z" stroke="#323232" stroke-width="2.0" fill="#323232" transform="matrix(1.0,0.0,0.0,1.0,0.0,0.0)"/></marker><marker id="ProcessOnMarker1115" markerUnits="userSpaceOnUse" orient="auto" markerWidth="16.23606797749979" markerHeight="10.550836550532098" viewBox="-1.0 -1.3763819204711736 16.23606797749979 10.550836550532098" refX="-1.0" refY="3.8990363547948754"><path id="ProcessOnPath1116" d="M12.0 3.8990363547948754L0.0 7.798072709589751V0.0Z" stroke="#323232" stroke-width="2.0" fill="#323232" transform="matrix(1.0,0.0,0.0,1.0,0.0,0.0)"/></marker><marker id="ProcessOnMarker1119" markerUnits="userSpaceOnUse" orient="auto" markerWidth="16.23606797749979" markerHeight="10.550836550532098" viewBox="-1.0 -1.3763819204711736 16.23606797749979 10.550836550532098" refX="-1.0" refY="3.8990363547948754"><path id="ProcessOnPath1120" d="M12.0 3.8990363547948754L0.0 7.798072709589751V0.0Z" stroke="#323232" stroke-width="2.0" fill="#323232" transform="matrix(1.0,0.0,0.0,1.0,0.0,0.0)"/></marker><marker id="ProcessOnMarker1126" markerUnits="userSpaceOnUse" orient="auto" markerWidth="16.23606797749979" markerHeight="10.550836550532098" viewBox="-1.0 -1.3763819204711736 16.23606797749979 10.550836550532098" refX="-1.0" refY="3.8990363547948754"><path id="ProcessOnPath1127" d="M12.0 3.8990363547948754L0.0 7.798072709589751V0.0Z" stroke="#323232" stroke-width="2.0" fill="#323232" transform="matrix(1.0,0.0,0.0,1.0,0.0,0.0)"/></marker><marker id="ProcessOnMarker1130" markerUnits="userSpaceOnUse" orient="auto" markerWidth="16.23606797749979" markerHeight="10.550836550532098" viewBox="-1.0 -1.3763819204711736 16.23606797749979 10.550836550532098" refX="-1.0" refY="3.8990363547948754"><path id="ProcessOnPath1131" d="M12.0 3.8990363547948754L0.0 7.798072709589751V0.0Z" stroke="#323232" stroke-width="2.0" fill="#323232" transform="matrix(1.0,0.0,0.0,1.0,0.0,0.0)"/></marker><marker id="ProcessOnMarker1134" markerUnits="userSpaceOnUse" orient="auto" markerWidth="16.23606797749979" markerHeight="10.550836550532098" viewBox="-1.0 -1.3763819204711736 16.23606797749979 10.550836550532098" refX="-1.0" refY="3.8990363547948754"><path id="ProcessOnPath1135" d="M12.0 3.8990363547948754L0.0 7.798072709589751V0.0Z" stroke="#323232" stroke-width="2.0" fill="#323232" transform="matrix(1.0,0.0,0.0,1.0,0.0,0.0)"/></marker><marker id="ProcessOnMarker1138" markerUnits="userSpaceOnUse" orient="auto" markerWidth="16.23606797749979" markerHeight="10.550836550532098" viewBox="-1.0 -1.3763819204711736 16.23606797749979 10.550836550532098" refX="-1.0" refY="3.8990363547948754"><path id="ProcessOnPath1139" d="M12.0 3.8990363547948754L0.0 7.798072709589751V0.0Z" stroke="#323232" stroke-width="2.0" fill="#323232" transform="matrix(1.0,0.0,0.0,1.0,0.0,0.0)"/></marker><marker id="ProcessOnMarker1142" markerUnits="userSpaceOnUse" orient="auto" markerWidth="16.23606797749979" markerHeight="10.550836550532098" viewBox="-1.0 -1.3763819204711736 16.23606797749979 10.550836550532098" refX="-1.0" refY="3.8990363547948754"><path id="ProcessOnPath1143" d="M12.0 3.8990363547948754L0.0 7.798072709589751V0.0Z" stroke="#323232" stroke-width="2.0" fill="#323232" transform="matrix(1.0,0.0,0.0,1.0,0.0,0.0)"/></marker><marker id="ProcessOnMarker1149" markerUnits="userSpaceOnUse" orient="auto" markerWidth="16.23606797749979" markerHeight="10.550836550532098" viewBox="-1.0 -1.3763819204711736 16.23606797749979 10.550836550532098" refX="-1.0" refY="3.8990363547948754"><path id="ProcessOnPath1150" d="M12.0 3.8990363547948754L0.0 7.798072709589751V0.0Z" stroke="#323232" stroke-width="2.0" fill="#323232" transform="matrix(1.0,0.0,0.0,1.0,0.0,0.0)"/></marker><marker id="ProcessOnMarker1156" markerUnits="userSpaceOnUse" orient="auto" markerWidth="16.23606797749979" markerHeight="10.550836550532098" viewBox="-1.0 -1.3763819204711736 16.23606797749979 10.550836550532098" refX="-1.0" refY="3.8990363547948754"><path id="ProcessOnPath1157" d="M12.0 3.8990363547948754L0.0 7.798072709589751V0.0Z" stroke="#323232" stroke-width="2.0" fill="#323232" transform="matrix(1.0,0.0,0.0,1.0,0.0,0.0)"/></marker><marker id="ProcessOnMarker1163" markerUnits="userSpaceOnUse" orient="auto" markerWidth="16.23606797749979" markerHeight="10.550836550532098" viewBox="-1.0 -1.3763819204711736 16.23606797749979 10.550836550532098" refX="15.23606797749979" refY="3.8990363547948754"><path id="ProcessOnPath1164" d="M12.0 3.8990363547948754L0.0 7.798072709589751V0.0Z" stroke="#323232" stroke-width="2.0" fill="#323232" transform="matrix(-1.0,1.2246467991473532E-16,-1.2246467991473532E-16,-1.0,14.23606797749979,7.798072709589751)"/></marker><marker id="ProcessOnMarker1165" markerUnits="userSpaceOnUse" orient="auto" markerWidth="16.23606797749979" markerHeight="10.550836550532098" viewBox="-1.0 -1.3763819204711736 16.23606797749979 10.550836550532098" refX="-1.0" refY="3.8990363547948754"><path id="ProcessOnPath1166" d="M12.0 3.8990363547948754L0.0 7.798072709589751V0.0Z" stroke="#323232" stroke-width="2.0" fill="#323232" transform="matrix(1.0,0.0,0.0,1.0,0.0,0.0)"/></marker></defs><g id="ProcessOnG1002"><path id="ProcessOnPath1003" d="M25.0 41.25H2124.2857142857147V812.2160380592092H25.0V41.25Z" fill="#ffffff"/><g id="ProcessOnG1004"><g id="ProcessOnG1005" transform="matrix(1.0,0.0,0.0,1.0,637.3400081505912,162.54147252065871)" opacity="1.0"><path id="ProcessOnPath1006" d="M0.0 4.0Q0.0 0.0 4.0 0.0L942.9789798468319 0.0Q946.9789798468319 0.0 946.9789798468319 4.0L946.9789798468319 625.1131393249001Q946.9789798468319 629.1131393249001 942.9789798468319 629.1131393249001L4.0 629.1131393249001Q0.0 629.1131393249001 0.0 625.1131393249001Z" stroke="#323232" stroke-width="2.0" stroke-dasharray="none" opacity="1.0" fill="#ffffcc"/></g><g id="ProcessOnG1007" transform="matrix(1.0,0.0,0.0,1.0,685.9062041376793,426.19156049280025)" opacity="1.0"><path id="ProcessOnPath1008" d="M0.0 4.0Q0.0 0.0 4.0 0.0L274.6334237214103 0.0Q278.6334237214103 0.0 278.6334237214103 4.0L278.6334237214103 239.86161871890033Q278.6334237214103 243.86161871890033 274.6334237214103 243.86161871890033L4.0 243.86161871890033Q0.0 243.86161871890033 0.0 239.86161871890033Z" stroke="#323232" stroke-width="2.0" stroke-dasharray="none" opacity="1.0" fill="#99ff99"/></g><g id="ProcessOnG1009" transform="matrix(1.0,0.0,0.0,1.0,161.3804150132274,127.47751778294207)" opacity="1.0"><path id="ProcessOnPath1010" d="M0.0 4.0Q0.0 0.0 4.0 0.0L336.0 0.0Q340.0 0.0 340.0 4.0L340.0 277.0Q340.0 281.0 336.0 281.0L4.0 281.0Q0.0 281.0 0.0 277.0Z" stroke="#323232" stroke-width="2.0" stroke-dasharray="none" opacity="1.0" fill="#ffcc99"/></g><g id="ProcessOnG1011" transform="matrix(1.0,0.0,0.0,1.0,239.5757275132274,156.0)" opacity="1.0"><path id="ProcessOnPath1012" d="M0.0 4.0Q0.0 0.0 4.0 0.0L178.75 0.0Q182.75 0.0 182.75 4.0L182.75 32.5Q182.75 36.5 178.75 36.5L4.0 36.5Q0.0 36.5 0.0 32.5Z" stroke="#323232" stroke-width="2.0" stroke-dasharray="none" opacity="1.0" fill="#e5ccff"/><g id="ProcessOnG1013" transform="matrix(1.0,0.0,0.0,1.0,10.0,8.25)"><text id="ProcessOnText1014" fill="#000000" font-size="16" x="80.375" y="16.4" font-family="微软雅黑" font-weight="normal" font-style="normal" text-decoration="none" family="微软雅黑" text-anchor="middle" size="16">Properties</text></g></g><g id="ProcessOnG1015" transform="matrix(1.0,0.0,0.0,1.0,239.9507275132274,218.5)" opacity="1.0"><path id="ProcessOnPath1016" d="M0.0 4.0Q0.0 0.0 4.0 0.0L178.0 0.0Q182.0 0.0 182.0 4.0L182.0 120.0Q182.0 124.0 178.0 124.0L4.0 124.0Q0.0 124.0 0.0 120.0Z" stroke="#323232" stroke-width="2.0" stroke-dasharray="none" opacity="1.0" fill="#ffff99"/></g><g id="ProcessOnG1017" transform="matrix(1.0,0.0,0.0,1.0,258.75,238.22916666666666)" opacity="1.0"><path id="ProcessOnPath1018" d="M0.0 4.0Q0.0 0.0 4.0 0.0L61.0 0.0Q65.0 0.0 65.0 4.0L65.0 36.0Q65.0 40.0 61.0 40.0L4.0 40.0Q0.0 40.0 0.0 36.0Z" stroke="#323232" stroke-width="2.0" stroke-dasharray="none" opacity="1.0" fill="#ffffcc"/><g id="ProcessOnG1019" transform="matrix(1.0,0.0,0.0,1.0,10.0,11.875)"><text id="ProcessOnText1020" fill="#000000" font-size="13" x="21.5" y="13.325" font-family="微软雅黑" font-weight="normal" font-style="normal" text-decoration="none" family="微软雅黑" text-anchor="middle" size="13">Client</text></g></g><g id="ProcessOnG1021" transform="matrix(1.0,0.0,0.0,1.0,339.375,238.09027777777771)" opacity="1.0"><path id="ProcessOnPath1022" d="M0.0 4.0Q0.0 0.0 4.0 0.0L61.0 0.0Q65.0 0.0 65.0 4.0L65.0 36.0Q65.0 40.0 61.0 40.0L4.0 40.0Q0.0 40.0 0.0 36.0Z" stroke="#323232" stroke-width="2.0" stroke-dasharray="none" opacity="1.0" fill="#ffffcc"/><g id="ProcessOnG1023" transform="matrix(1.0,0.0,0.0,1.0,10.0,11.875)"><text id="ProcessOnText1024" fill="#000000" font-size="13" x="21.5" y="13.325" font-family="微软雅黑" font-weight="normal" font-style="normal" text-decoration="none" family="微软雅黑" text-anchor="middle" size="13">Client</text></g></g><g id="ProcessOnG1025" transform="matrix(1.0,0.0,0.0,1.0,250.9507275132274,290.0)" opacity="1.0"><path id="ProcessOnPath1026" d="M0.0 0.0L160.0 0.0L160.0 40.0L0.0 40.0Z" stroke="none" stroke-width="0.0" stroke-dasharray="none" opacity="1.0" fill="none"/><g id="ProcessOnG1027" transform="matrix(1.0,0.0,0.0,1.0,0.0,10.0)"><text id="ProcessOnText1028" fill="#000000" font-size="16" x="79.0" y="16.4" font-family="微软雅黑" font-weight="normal" font-style="normal" text-decoration="none" family="微软雅黑" text-anchor="middle" size="16">Clients</text></g></g><g id="ProcessOnG1029" transform="matrix(1.0,0.0,0.0,1.0,249.3125,357.5)" opacity="1.0"><path id="ProcessOnPath1030" d="M0.0 0.0L160.0 0.0L160.0 40.0L0.0 40.0Z" stroke="none" stroke-width="0.0" stroke-dasharray="none" opacity="1.0" fill="none"/><g id="ProcessOnG1031" transform="matrix(1.0,0.0,0.0,1.0,0.0,8.125)"><text id="ProcessOnText1032" fill="#000000" font-size="19" x="79.0" y="19.475" font-family="微软雅黑" font-weight="bold" font-style="normal" text-decoration="none" family="微软雅黑" text-anchor="middle" size="19">Store</text></g></g><g id="ProcessOnG1033" transform="matrix(1.0,0.0,0.0,1.0,45.0,61.25)" opacity="1.0"><path id="ProcessOnPath1034" d="M0.0 0.0L166.25 0.0L166.25 30.0L0.0 30.0Z" stroke="#323232" stroke-width="2.0" stroke-dasharray="none" opacity="1.0" fill="#e6ffcc"/><g id="ProcessOnG1035" transform="matrix(1.0,0.0,0.0,1.0,10.0,6.25)"><text id="ProcessOnText1036" fill="#000000" font-size="14" x="72.125" y="14.350000000000001" font-family="微软雅黑" font-weight="normal" font-style="normal" text-decoration="none" family="微软雅黑" text-anchor="middle" size="14">chatroom.properties</text></g></g><g id="ProcessOnG1037"><path id="ProcessOnPath1038" d="M128.125 91.25L128.125 174.25L224.3396595357276 174.25" stroke="#323232" stroke-width="2.0" stroke-dasharray="none" fill="none" marker-end="url(#ProcessOnMarker1039)"/></g><g id="ProcessOnG1041" transform="matrix(1.0,0.0,0.0,1.0,177.75958994708998,549.3588952020663)" opacity="1.0"><path id="ProcessOnPath1042" d="M0.0 4.0Q0.0 0.0 4.0 0.0L297.42857142857144 0.0Q301.42857142857144 0.0 301.42857142857144 4.0L301.42857142857144 238.8571428571429Q301.42857142857144 242.8571428571429 297.42857142857144 242.8571428571429L4.0 242.8571428571429Q0.0 242.8571428571429 0.0 238.8571428571429Z" stroke="#323232" stroke-width="2.0" stroke-dasharray="none" opacity="1.0" fill="#99ffff"/><g id="ProcessOnG1043" transform="matrix(1.0,0.0,0.0,1.0,10.0,106.42857142857144)"><text id="ProcessOnText1044" fill="#000000" font-size="24" x="139.71428571428572" y="24.6" font-family="微软雅黑" font-weight="bold" font-style="normal" text-decoration="none" family="微软雅黑" text-anchor="middle" size="24">Server-Service</text></g></g><g id="ProcessOnG1045" transform="matrix(1.0,0.0,0.0,1.0,1030.8313409257325,184.51140787681797)" opacity="1.0"><path id="ProcessOnPath1046" d="M0.0 0.0L160.0 0.0L160.0 40.0L0.0 40.0Z" stroke="none" stroke-width="0.0" stroke-dasharray="none" opacity="1.0" fill="none"/><g id="ProcessOnG1047" transform="matrix(1.0,0.0,0.0,1.0,0.0,5.0)"><text id="ProcessOnText1048" fill="#000000" font-size="24" x="79.0" y="24.6" font-family="微软雅黑" font-weight="bold" font-style="normal" text-decoration="none" family="微软雅黑" text-anchor="middle" size="24">Server</text></g></g><g id="ProcessOnG1049" transform="matrix(1.0,0.0,0.0,1.0,685.5854986726016,254.99102784665493)" opacity="1.0"><path id="ProcessOnPath1050" d="M0.0 0.0L205.71428571428578 0.0L205.71428571428578 37.85714285714289L0.0 37.85714285714289Z" stroke="#323232" stroke-width="2.0" stroke-dasharray="none" opacity="1.0" fill="#ccccff"/><g id="ProcessOnG1051" transform="matrix(1.0,0.0,0.0,1.0,10.0,10.803571428571445)"><text id="ProcessOnText1052" fill="#000000" font-size="13" x="91.85714285714289" y="13.325" font-family="微软雅黑" font-weight="normal" font-style="normal" text-decoration="none" family="微软雅黑" text-anchor="middle" size="13">Send-Msg-Queue</text></g></g><g id="ProcessOnG1053" transform="matrix(1.0,0.0,0.0,1.0,1020.5732374976468,697.0715964436592)" opacity="1.0"><path id="ProcessOnPath1054" d="M0.0 0.0L205.71428571428578 0.0L205.71428571428578 37.85714285714289L0.0 37.85714285714289Z" stroke="#323232" stroke-width="2.0" stroke-dasharray="none" opacity="1.0" fill="#ccccff"/><g id="ProcessOnG1055" transform="matrix(1.0,0.0,0.0,1.0,10.0,8.928571428571445)"><text id="ProcessOnText1056" fill="#000000" font-size="16" x="91.85714285714289" y="16.4" font-family="微软雅黑" font-weight="normal" font-style="normal" text-decoration="none" family="微软雅黑" text-anchor="middle" size="16">Recv-Echo-Msg-Queue</text></g></g><g id="ProcessOnG1057" transform="matrix(1.0,0.0,0.0,1.0,1016.9649083840757,529.4917933346096)" opacity="1.0"><path id="ProcessOnPath1058" d="M0.0 0.0L205.71428571428578 0.0L205.71428571428578 37.85714285714289L0.0 37.85714285714289Z" stroke="#323232" stroke-width="2.0" stroke-dasharray="none" opacity="1.0" fill="#ccccff"/><g id="ProcessOnG1059" transform="matrix(1.0,0.0,0.0,1.0,10.0,8.928571428571445)"><text id="ProcessOnText1060" fill="#000000" font-size="16" x="91.85714285714289" y="16.4" font-family="微软雅黑" font-weight="normal" font-style="normal" text-decoration="none" family="微软雅黑" text-anchor="middle" size="16">Recv-Msg-Queue</text></g></g><g id="ProcessOnG1061" transform="matrix(1.0,0.0,0.0,1.0,1295.072776146132,567.0108259033724)" opacity="1.0"><path id="ProcessOnPath1062" d="M0.0 4.0Q0.0 0.0 4.0 0.0L250.28571428571422 0.0Q254.28571428571422 0.0 254.28571428571422 4.0L254.28571428571422 93.85714285714334Q254.28571428571422 97.85714285714334 250.28571428571422 97.85714285714334L4.0 97.85714285714334Q0.0 97.85714285714334 0.0 93.85714285714334Z" stroke="#323232" stroke-width="2.0" stroke-dasharray="none" opacity="1.0" fill="#99ffff"/><g id="ProcessOnG1063" transform="matrix(1.0,0.0,0.0,1.0,10.0,35.17857142857167)"><text id="ProcessOnText1064" fill="#000000" font-size="22" x="116.14285714285711" y="22.55" font-family="微软雅黑" font-weight="normal" font-style="normal" text-decoration="none" family="微软雅黑" text-anchor="middle" size="22">Recv-Thread</text></g></g><g id="ProcessOnG1065" transform="matrix(1.0,0.0,0.0,1.0,721.7740488934936,506.60320104718267)" opacity="1.0"><path id="ProcessOnPath1066" d="M0.0 4.0Q0.0 0.0 4.0 0.0L203.6422324031655 0.0Q207.6422324031655 0.0 207.6422324031655 4.0L207.6422324031655 33.14285714285717Q207.6422324031655 37.14285714285717 203.6422324031655 37.14285714285717L4.0 37.14285714285717Q0.0 37.14285714285717 0.0 33.14285714285717Z" stroke="#323232" stroke-width="2.0" stroke-dasharray="none" opacity="1.0" fill="#ccffcc"/><g id="ProcessOnG1067" transform="matrix(1.0,0.0,0.0,1.0,10.0,9.821428571428584)"><text id="ProcessOnText1068" fill="#000000" font-size="14" x="92.82111620158275" y="14.350000000000001" font-family="微软雅黑" font-weight="normal" font-style="normal" text-decoration="none" family="微软雅黑" text-anchor="middle" size="14">Recv-Handle-Thread-1</text></g></g><g id="ProcessOnG1069" transform="matrix(1.0,0.0,0.0,1.0,721.9489760071966,562.34693877551)" opacity="1.0"><path id="ProcessOnPath1070" d="M0.0 4.0Q0.0 0.0 4.0 0.0L203.6422324031655 0.0Q207.6422324031655 0.0 207.6422324031655 4.0L207.6422324031655 34.571428571428555Q207.6422324031655 38.571428571428555 203.6422324031655 38.571428571428555L4.0 38.571428571428555Q0.0 38.571428571428555 0.0 34.571428571428555Z" stroke="#323232" stroke-width="2.0" stroke-dasharray="none" opacity="1.0" fill="#ccffcc"/><g id="ProcessOnG1071" transform="matrix(1.0,0.0,0.0,1.0,10.0,10.535714285714278)"><text id="ProcessOnText1072" fill="#000000" font-size="14" x="92.82111620158275" y="14.350000000000001" font-family="微软雅黑" font-weight="normal" font-style="normal" text-decoration="none" family="微软雅黑" text-anchor="middle" size="14">Recv-Handle-Thread-0</text></g></g><g id="ProcessOnG1073" transform="matrix(1.0,0.0,0.0,1.0,721.3435314405654,446.52307285193126)" opacity="1.0"><path id="ProcessOnPath1074" d="M0.0 4.0Q0.0 0.0 4.0 0.0L203.64223240316528 0.0Q207.64223240316528 0.0 207.64223240316528 4.0L207.64223240316528 35.45153061224545Q207.64223240316528 39.45153061224545 203.64223240316528 39.45153061224545L4.0 39.45153061224545Q0.0 39.45153061224545 0.0 35.45153061224545Z" stroke="#323232" stroke-width="2.0" stroke-dasharray="none" opacity="1.0" fill="#ccffcc"/><g id="ProcessOnG1075" transform="matrix(1.0,0.0,0.0,1.0,10.0,10.975765306122724)"><text id="ProcessOnText1076" fill="#000000" font-size="14" x="92.82111620158264" y="14.350000000000001" font-family="微软雅黑" font-weight="normal" font-style="normal" text-decoration="none" family="微软雅黑" text-anchor="middle" size="14">Recv-Handle-Thread-n</text></g></g><g id="ProcessOnG1077" transform="matrix(1.0,0.0,0.0,1.0,685.4588503353128,367.6484522160617)" opacity="1.0"><path id="ProcessOnPath1078" d="M0.0 4.0Q0.0 0.0 4.0 0.0L275.212054501103 0.0Q279.212054501103 0.0 279.212054501103 4.0L279.212054501103 36.78861796102399Q279.212054501103 40.78861796102399 275.212054501103 40.78861796102399L4.0 40.78861796102399Q0.0 40.78861796102399 0.0 36.78861796102399Z" stroke="#323232" stroke-width="2.0" stroke-dasharray="none" opacity="1.0" fill="#ccffe6"/><g id="ProcessOnG1079" transform="matrix(1.0,0.0,0.0,1.0,10.0,9.769308980511994)"><text id="ProcessOnText1080" fill="#000000" font-size="17" x="128.6060272505515" y="17.425" font-family="微软雅黑" font-weight="normal" font-style="normal" text-decoration="none" family="微软雅黑" text-anchor="middle" size="17">Monitor-Client-Thread</text></g></g><g id="ProcessOnG1081" transform="matrix(1.0,0.0,0.0,1.0,1295.070584223115,224.99905185055596)" opacity="1.0"><path id="ProcessOnPath1082" d="M0.0 4.0Q0.0 0.0 4.0 0.0L250.28571428571422 0.0Q254.28571428571422 0.0 254.28571428571422 4.0L254.28571428571422 93.85714285714334Q254.28571428571422 97.85714285714334 250.28571428571422 97.85714285714334L4.0 97.85714285714334Q0.0 97.85714285714334 0.0 93.85714285714334Z" stroke="#323232" stroke-width="2.0" stroke-dasharray="none" opacity="1.0" fill="#cce5ff"/><g id="ProcessOnG1083" transform="matrix(1.0,0.0,0.0,1.0,10.0,35.17857142857167)"><text id="ProcessOnText1084" fill="#000000" font-size="22" x="116.14285714285711" y="22.55" font-family="微软雅黑" font-weight="normal" font-style="normal" text-decoration="none" family="微软雅黑" text-anchor="middle" size="22">Send-Thread</text></g></g><g id="ProcessOnG1085" transform="matrix(1.0,0.0,0.0,1.0,686.7175138960869,696.6053047624721)" opacity="1.0"><path id="ProcessOnPath1086" d="M0.0 4.0Q0.0 0.0 4.0 0.0L273.44147828088626 0.0Q277.44147828088626 0.0 277.44147828088626 4.0L277.44147828088626 34.709912536443085Q277.44147828088626 38.709912536443085 273.44147828088626 38.709912536443085L4.0 38.709912536443085Q0.0 38.709912536443085 0.0 34.709912536443085Z" stroke="#323232" stroke-width="2.0" stroke-dasharray="none" opacity="1.0" fill="#ffffcc"/><g id="ProcessOnG1087" transform="matrix(1.0,0.0,0.0,1.0,10.0,9.354956268221542)"><text id="ProcessOnText1088" fill="#000000" font-size="16" x="127.72073914044313" y="16.4" font-family="微软雅黑" font-weight="normal" font-style="normal" text-decoration="none" family="微软雅黑" text-anchor="middle" size="16">Recv-Echo-Handle-Thread</text></g></g><g id="ProcessOnG1089" transform="matrix(1.0,0.0,0.0,1.0,741.5857092672179,619.9999999999999)" opacity="1.0"><path id="ProcessOnPath1090" d="M0.0 0.0L167.6422324031655 0.0L167.6422324031655 35.71428571428572L0.0 35.71428571428572Z" stroke="none" stroke-width="0.0" stroke-dasharray="none" opacity="1.0" fill="none"/><g id="ProcessOnG1091" transform="matrix(1.0,0.0,0.0,1.0,0.0,8.482142857142861)"><text id="ProcessOnText1092" fill="#000000" font-size="15" x="82.82111620158275" y="15.375" font-family="微软雅黑" font-weight="bold" font-style="normal" text-decoration="none" family="微软雅黑" text-anchor="middle" size="15">Recv-Handle-Threads</text></g></g><g id="ProcessOnG1093" transform="matrix(1.0,0.0,0.0,1.0,1796.5889212827997,372.05780832030246)" opacity="1.0"><path id="ProcessOnPath1094" d="M0.0 4.0Q0.0 0.0 4.0 0.0L303.6967930029148 0.0Q307.6967930029148 0.0 307.6967930029148 4.0L307.6967930029148 206.06377551020444Q307.6967930029148 210.06377551020444 303.6967930029148 210.06377551020444L4.0 210.06377551020444Q0.0 210.06377551020444 0.0 206.06377551020444Z" stroke="#323232" stroke-width="2.0" stroke-dasharray="none" opacity="1.0" fill="#ccccff"/></g><g id="ProcessOnG1095" transform="matrix(1.0,0.0,0.0,1.0,1873.7376483609303,395.38617131799526)" opacity="1.0"><path id="ProcessOnPath1096" d="M0.0 4.0Q0.0 0.0 4.0 0.0L161.36443148688204 0.0Q165.36443148688204 0.0 165.36443148688204 4.0L165.36443148688204 47.606238865798844Q165.36443148688204 51.606238865798844 161.36443148688204 51.606238865798844L4.0 51.606238865798844Q0.0 51.606238865798844 0.0 47.606238865798844Z" stroke="#323232" stroke-width="2.0" stroke-dasharray="none" opacity="1.0" fill="#ffccff"/><g id="ProcessOnG1097" transform="matrix(1.0,0.0,0.0,1.0,10.0,12.678119432899422)"><text id="ProcessOnText1098" fill="#000000" font-size="21" x="71.68221574344102" y="21.525" font-family="微软雅黑" font-weight="normal" font-style="normal" text-decoration="none" family="微软雅黑" text-anchor="middle" size="21">Send</text></g></g><g id="ProcessOnG1099" transform="matrix(1.0,0.0,0.0,1.0,1873.919226181222,459.4200168822073)" opacity="1.0"><path id="ProcessOnPath1100" d="M0.0 4.0Q0.0 0.0 4.0 0.0L161.00127584629854 0.0Q165.00127584629854 0.0 165.00127584629854 4.0L165.00127584629854 47.1545784494557Q165.00127584629854 51.1545784494557 161.00127584629854 51.1545784494557L4.0 51.1545784494557Q0.0 51.1545784494557 0.0 47.1545784494557Z" stroke="#323232" stroke-width="2.0" stroke-dasharray="none" opacity="1.0" fill="#e5ccff"/><g id="ProcessOnG1101" transform="matrix(1.0,0.0,0.0,1.0,10.0,12.45228922472785)"><text id="ProcessOnText1102" fill="#000000" font-size="21" x="71.50063792314927" y="21.525" font-family="微软雅黑" font-weight="normal" font-style="normal" text-decoration="none" family="微软雅黑" text-anchor="middle" size="21">Recvice</text></g></g><g id="ProcessOnG1103" transform="matrix(1.0,0.0,0.0,1.0,1876.3814516971813,532.34693877551)" opacity="1.0"><path id="ProcessOnPath1104" d="M0.0 0.0L160.0 0.0L160.0 40.0L0.0 40.0Z" stroke="none" stroke-width="0.0" stroke-dasharray="none" opacity="1.0" fill="none"/><g id="ProcessOnG1105" transform="matrix(1.0,0.0,0.0,1.0,0.0,8.75)"><text id="ProcessOnText1106" fill="#000000" font-size="18" x="79.0" y="18.45" font-family="微软雅黑" font-weight="bold" font-style="normal" text-decoration="none" family="微软雅黑" text-anchor="middle" size="18">DatagramSocket</text></g></g><g id="ProcessOnG1107"><path id="ProcessOnPath1108" d="M1781.3528533053 477.0896960754047L1690.4539546401115 477.0896960754047L1690.4539546401115 477.09804218310876L1599.5550559749229 477.09804218310876" stroke="#323232" stroke-width="2.0" stroke-dasharray="none" fill="none" marker-start="url(#ProcessOnMarker1109)" marker-end="url(#ProcessOnMarker1111)"/></g><g id="ProcessOnG1113"><path id="ProcessOnPath1114" d="M891.2997843868874 273.9195992752264L1093.1851843050013 273.9195992752264L1093.1851843050013 273.92762327912766L1279.8345162456153 273.92762327912766" stroke="#323232" stroke-width="2.0" stroke-dasharray="none" fill="none" marker-end="url(#ProcessOnMarker1115)"/></g><g id="ProcessOnG1117"><path id="ProcessOnPath1118" d="M479.1881613756614 670.7874666306377C579.0 520.0 506.6535719596757 273.9195992752264 670.3494306951018 273.9195992752264" stroke="#323232" stroke-width="2.0" stroke-dasharray="none" fill="none" marker-end="url(#ProcessOnMarker1119)"/><g id="ProcessOnG1121" transform="matrix(1.0,0.0,0.0,1.0,550.8122884937237,405.808232966443)"><path id="ProcessOnPath1122" d="M0 0H58.0V20.0H0Z" fill="#fff" transform="matrix(1.0,0.0,0.0,1.0,-29.0,0.0)"/><text id="ProcessOnText1123" fill="#000000" font-size="16" x="0.0" y="16.4" font-family="微软雅黑" font-weight="normal" font-style="normal" text-decoration="none" family="微软雅黑" text-anchor="middle" size="16">commit</text></g></g><g id="ProcessOnG1124"><path id="ProcessOnPath1125" d="M1295.072776146132 615.9393973319441C1255.4755025415436 615.9393973319441 1262.27646770295 548.4203647631812 1237.9152620758614 548.4203647631812" stroke="#323232" stroke-width="2.0" stroke-dasharray="none" fill="none" marker-end="url(#ProcessOnMarker1126)"/></g><g id="ProcessOnG1128"><path id="ProcessOnPath1129" d="M1295.072776146132 615.9393973319441C1246.5035367906096 615.9393973319441 1274.856762567455 716.0001678722307 1241.5235911894324 716.0001678722307" stroke="#323232" stroke-width="2.0" stroke-dasharray="none" fill="none" marker-end="url(#ProcessOnMarker1130)"/></g><g id="ProcessOnG1132"><path id="ProcessOnPath1133" d="M1016.9649083840757 548.4203647631812C995.9944574052705 548.4203647631812 985.5100788378948 548.1223698522505 979.7756958365894 548.1223698522505" stroke="#323232" stroke-width="2.0" stroke-dasharray="none" fill="none" marker-end="url(#ProcessOnMarker1134)"/></g><g id="ProcessOnG1136"><path id="ProcessOnPath1137" d="M1020.5732374976468 716.0001678722307C998.0075337234424 716.0001678722307 986.7246959511775 715.9602610306937 979.395060154473 715.9602610306937" stroke="#323232" stroke-width="2.0" stroke-dasharray="none" fill="none" marker-end="url(#ProcessOnMarker1138)"/></g><g id="ProcessOnG1140"><path id="ProcessOnPath1141" d="M685.9062041376793 548.1223698522505C621.0 548.0 575.3372748783958 670.7874666306377 494.4242293531612 670.7874666306377" stroke="#323232" stroke-width="2.0" stroke-dasharray="none" fill="none" marker-end="url(#ProcessOnMarker1142)"/><g id="ProcessOnG1144" transform="matrix(1.0,0.0,0.0,1.0,596.1677822657535,599.4090295468502)"><path id="ProcessOnPath1145" d="M0 0H52.0V20.0H0Z" fill="#fff" transform="matrix(1.0,0.0,0.0,1.0,-26.0,0.0)"/><text id="ProcessOnText1146" fill="#000000" font-size="16" x="0.0" y="16.4" font-family="微软雅黑" font-weight="normal" font-style="normal" text-decoration="none" family="微软雅黑" text-anchor="middle" size="16">handle</text></g></g><g id="ProcessOnG1147"><path id="ProcessOnPath1148" d="M686.7175138960869 715.9602610306937C601.7619834002264 715.9602610306937 564.1436918715219 670.7874666306377 494.4242293531612 670.7874666306377" stroke="#323232" stroke-width="2.0" stroke-dasharray="none" fill="none" marker-end="url(#ProcessOnMarker1149)"/><g id="ProcessOnG1151" transform="matrix(1.0,0.0,0.0,1.0,584.8573461330617,684.6238638306658)"><path id="ProcessOnPath1152" d="M0 0H51.0V17.5H0Z" fill="#fff" transform="matrix(1.0,0.0,0.0,1.0,-25.5,0.0)"/><text id="ProcessOnText1153" fill="#000000" font-size="14" x="0.0" y="14.350000000000001" font-family="微软雅黑" font-weight="normal" font-style="normal" text-decoration="none" family="微软雅黑" text-anchor="middle" size="14">doEcho</text></g></g><g id="ProcessOnG1154"><path id="ProcessOnPath1155" d="M685.4588503353128 388.0427611965737C545.4633272212448 388.0427611965737 619.1836844897296 670.7874666306377 494.4242293531612 670.7874666306377" stroke="#323232" stroke-width="2.0" stroke-dasharray="none" fill="none" marker-end="url(#ProcessOnMarker1156)"/><g id="ProcessOnG1158" transform="matrix(1.0,0.0,0.0,1.0,584.2280143526747,520.6651139136058)"><path id="ProcessOnPath1159" d="M0 0H54.0V17.5H0Z" fill="#fff" transform="matrix(1.0,0.0,0.0,1.0,-27.0,0.0)"/><text id="ProcessOnText1160" fill="#000000" font-size="14" x="0.0" y="14.350000000000001" font-family="微软雅黑" font-weight="normal" font-style="normal" text-decoration="none" family="微软雅黑" text-anchor="middle" size="14">monitor</text></g></g><g id="ProcessOnG1161"><path id="ProcessOnPath1162" d="M331.38041501322743 423.71358576044184C331.38041501322743 464.8420605019438 328.47387566137576 492.9943524830645 328.47387566137576 534.1228272245664" stroke="#323232" stroke-width="2.0" stroke-dasharray="none" fill="none" marker-start="url(#ProcessOnMarker1163)" marker-end="url(#ProcessOnMarker1165)"/></g></g></g></svg>