<svg version="1.1" xmlns="http://www.w3.org/2000/svg" xmlns:xlink="http://www.w3.org/1999/xlink" width="568.3671875" height="793"><defs/><g><g transform="translate(-78,-6) scale(1,1)"><rect fill="#C0C0C0" stroke="none" x="335" y="63" width="83.78173828125" height="100" opacity="0.2"/></g><g transform="translate(-78,-6) scale(1,1)"><rect fill="#ffffff" stroke="none" x="328" y="56" width="83.78173828125" height="100"/></g><g transform="translate(-78,-6) scale(1,1)"><path fill="none" stroke="#000000" d="M 328 56 L 411.78173828125 56 L 411.78173828125 156 L 328 156 L 328 56 Z Z" stroke-miterlimit="10"/></g><g transform="translate(-78,-6) scale(1,1)"><path fill="none" stroke="#000000" d="M 328 81 L 411.78173828125 81" stroke-miterlimit="10"/></g><g transform="translate(-78,-6) scale(1,1)"><path fill="none" stroke="#000000" d="M 328 104 L 411.78173828125 104" stroke-miterlimit="10"/></g><g transform="translate(-78,-6) scale(1,1)"><g><path fill="none" stroke="none"/><text fill="#000000" stroke="none" font-family="Arial" font-size="13px" font-style="normal" font-weight="bold" text-decoration="none" x="350.022705078125" y="75.5">Animal</text></g></g><g transform="translate(-78,-6) scale(1,1)"><g><path fill="none" stroke="none"/><text fill="#000000" stroke="none" font-family="Arial" font-size="13px" font-style="normal" font-weight="normal" text-decoration="none" x="333" y="98.5">-weight</text></g></g><g transform="translate(-78,-6) scale(1,1)"><g><path fill="none" stroke="none"/><text fill="#000000" stroke="none" font-family="Arial" font-size="13px" font-style="normal" font-weight="normal" text-decoration="none" x="333" y="121.5">+breath()</text></g></g><g transform="translate(-78,-6) scale(1,1)"><g><path fill="none" stroke="none"/><text fill="#000000" stroke="none" font-family="Arial" font-size="13px" font-style="normal" font-weight="normal" text-decoration="none" x="333" y="136.5">+drink()</text></g></g><g transform="translate(-78,-6) scale(1,1)"><g><path fill="none" stroke="none"/><text fill="#000000" stroke="none" font-family="Arial" font-size="13px" font-style="normal" font-weight="normal" text-decoration="none" x="333" y="151.5">+getWeigth()</text></g></g><g transform="translate(-78,-6) scale(1,1)"><rect fill="#C0C0C0" stroke="none" x="487" y="23" width="27.05908203125" height="44" opacity="0.2"/></g><g transform="translate(-78,-6) scale(1,1)"><rect fill="#ffffff" stroke="none" x="480" y="16" width="27.05908203125" height="44"/></g><g transform="translate(-78,-6) scale(1,1)"><path fill="none" stroke="#000000" d="M 480 16 L 507.05908203125 16 L 507.05908203125 60 L 480 60 L 480 16 Z Z" stroke-miterlimit="10"/></g><g transform="translate(-78,-6) scale(1,1)"><path fill="none" stroke="#000000" d="M 480 41 L 507.05908203125 41" stroke-miterlimit="10"/></g><g transform="translate(-78,-6) scale(1,1)"><path fill="none" stroke="#000000" d="M 480 51 L 507.05908203125 51" stroke-miterlimit="10"/></g><g transform="translate(-78,-6) scale(1,1)"><g><path fill="none" stroke="none"/><text fill="#000000" stroke="none" font-family="Arial" font-size="13px" font-style="normal" font-weight="bold" text-decoration="none" x="485.58544921875" y="35.5">Air</text></g></g><g transform="translate(-78,-6) scale(1,1)"><rect fill="#C0C0C0" stroke="none" x="167" y="31" width="45.1181640625" height="44" opacity="0.2"/></g><g transform="translate(-78,-6) scale(1,1)"><rect fill="#ffffff" stroke="none" x="160" y="24" width="45.1181640625" height="44"/></g><g transform="translate(-78,-6) scale(1,1)"><path fill="none" stroke="#000000" d="M 160 24 L 205.1181640625 24 L 205.1181640625 68 L 160 68 L 160 24 Z Z" stroke-miterlimit="10"/></g><g transform="translate(-78,-6) scale(1,1)"><path fill="none" stroke="#000000" d="M 160 49 L 205.1181640625 49" stroke-miterlimit="10"/></g><g transform="translate(-78,-6) scale(1,1)"><path fill="none" stroke="#000000" d="M 160 59 L 205.1181640625 59" stroke-miterlimit="10"/></g><g transform="translate(-78,-6) scale(1,1)"><g><path fill="none" stroke="none"/><text fill="#000000" stroke="none" font-family="Arial" font-size="13px" font-style="normal" font-weight="bold" text-decoration="none" x="165.2236328125" y="43.5">Water</text></g></g><g transform="translate(-78,-6) scale(1,1)"><path fill="none" stroke="#000000" d="M 413 82 L 479 46" stroke-miterlimit="10" stroke-dasharray="3"/></g><g transform="translate(-78,-6) scale(1,1)"><path fill="none" stroke="#000000" d="M 472.0939692801294 54.56193551109815 L 479 46 L 468.0624961869175 47.17090150687629" stroke-miterlimit="10"/></g><g transform="translate(-78,-6) scale(1,1)"><path fill="none" stroke="#000000" d="M 327 93 L 206 54" stroke-miterlimit="10" stroke-dasharray="3"/></g><g transform="translate(-78,-6) scale(1,1)"><path fill="none" stroke="#000000" d="M 216.9640245530908 53.11108740630917 L 206 54 L 214.3812922334672 61.124179987705396" stroke-miterlimit="10"/></g><g transform="translate(-78,-6) scale(1,1)"><rect fill="#C0C0C0" stroke="none" x="343" y="231" width="77.9990234375" height="100" opacity="0.2"/></g><g transform="translate(-78,-6) scale(1,1)"><rect fill="#ffffff" stroke="none" x="336" y="224" width="77.9990234375" height="100"/></g><g transform="translate(-78,-6) scale(1,1)"><path fill="none" stroke="#000000" d="M 336 224 L 413.9990234375 224 L 413.9990234375 324 L 336 324 L 336 224 Z Z" stroke-miterlimit="10"/></g><g transform="translate(-78,-6) scale(1,1)"><path fill="none" stroke="#000000" d="M 336 249 L 413.9990234375 249" stroke-miterlimit="10"/></g><g transform="translate(-78,-6) scale(1,1)"><path fill="none" stroke="#000000" d="M 336 287 L 413.9990234375 287" stroke-miterlimit="10"/></g><g transform="translate(-78,-6) scale(1,1)"><g><path fill="none" stroke="none"/><text fill="#000000" stroke="none" font-family="Arial" font-size="13px" font-style="normal" font-weight="bold" text-decoration="none" x="354.404541015625" y="243.5">Person</text></g></g><g transform="translate(-78,-6) scale(1,1)"><g><path fill="none" stroke="none"/><text fill="#000000" stroke="none" font-family="Arial" font-size="13px" font-style="normal" font-weight="normal" text-decoration="none" x="341" y="266.5">-name</text></g></g><g transform="translate(-78,-6) scale(1,1)"><g><path fill="none" stroke="none"/><text fill="#000000" stroke="none" font-family="Arial" font-size="13px" font-style="normal" font-weight="normal" text-decoration="none" x="341" y="281.5">-age</text></g></g><g transform="translate(-78,-6) scale(1,1)"><g><path fill="none" stroke="none"/><text fill="#000000" stroke="none" font-family="Arial" font-size="13px" font-style="normal" font-weight="normal" text-decoration="none" x="341" y="304.5">+getName()</text></g></g><g transform="translate(-78,-6) scale(1,1)"><g><path fill="none" stroke="none"/><text fill="#000000" stroke="none" font-family="Arial" font-size="13px" font-style="normal" font-weight="normal" text-decoration="none" x="341" y="319.5">+getAge()</text></g></g><g transform="translate(-78,-6) scale(1,1)"><path fill="none" stroke="#000000" d="M 372 223 L 371 157" stroke-miterlimit="10"/></g><g transform="translate(-78,-6) scale(1,1)"><path fill="#FFFFFF" stroke="none" d="M 379.725993807412 177.1954705831037 L 371 157 L 362.8898551952468 177.45056359237893"/></g><g transform="translate(-78,-6) scale(1,1)"><path fill="none" stroke="#000000" d="M 379.725993807412 177.1954705831037 L 371 157 L 362.8898551952468 177.45056359237893 L 379.725993807412 177.1954705831037" stroke-miterlimit="10"/></g><g transform="translate(-78,-6) scale(1,1)"><rect fill="#C0C0C0" stroke="none" x="327" y="399" width="80.169921875" height="100" opacity="0.2"/></g><g transform="translate(-78,-6) scale(1,1)"><rect fill="#ffffff" stroke="none" x="320" y="392" width="80.169921875" height="100"/></g><g transform="translate(-78,-6) scale(1,1)"><path fill="none" stroke="#000000" d="M 320 392 L 400.169921875 392 L 400.169921875 492 L 320 492 L 320 392 Z Z" stroke-miterlimit="10"/></g><g transform="translate(-78,-6) scale(1,1)"><path fill="none" stroke="#000000" d="M 320 417 L 400.169921875 417" stroke-miterlimit="10"/></g><g transform="translate(-78,-6) scale(1,1)"><path fill="none" stroke="#000000" d="M 320 455 L 400.169921875 455" stroke-miterlimit="10"/></g><g transform="translate(-78,-6) scale(1,1)"><g><path fill="none" stroke="none"/><text fill="#000000" stroke="none" font-family="Arial" font-size="13px" font-style="normal" font-weight="bold" text-decoration="none" x="331.180908203125" y="411.5">Employee</text></g></g><g transform="translate(-78,-6) scale(1,1)"><g><path fill="none" stroke="none"/><text fill="#000000" stroke="none" font-family="Arial" font-size="13px" font-style="normal" font-weight="normal" text-decoration="none" x="325" y="434.5">-id</text></g></g><g transform="translate(-78,-6) scale(1,1)"><g><path fill="none" stroke="none"/><text fill="#000000" stroke="none" font-family="Arial" font-size="13px" font-style="normal" font-weight="normal" text-decoration="none" x="325" y="449.5">-salary</text></g></g><g transform="translate(-78,-6) scale(1,1)"><g><path fill="none" stroke="none"/><text fill="#000000" stroke="none" font-family="Arial" font-size="13px" font-style="normal" font-weight="normal" text-decoration="none" x="325" y="472.5">+getId()</text></g></g><g transform="translate(-78,-6) scale(1,1)"><g><path fill="none" stroke="none"/><text fill="#000000" stroke="none" font-family="Arial" font-size="13px" font-style="normal" font-weight="normal" text-decoration="none" x="325" y="487.5">+getSalary()</text></g></g><g transform="translate(-78,-6) scale(1,1)"><path fill="none" stroke="#000000" d="M 364 391 L 370 325" stroke-miterlimit="10"/></g><g transform="translate(-78,-6) scale(1,1)"><path fill="#FFFFFF" stroke="none" d="M 376.5442895713979 346.00410136153636 L 370 325 L 359.77536902851193 344.4796540394558"/></g><g transform="translate(-78,-6) scale(1,1)"><path fill="none" stroke="#000000" d="M 376.5442895713979 346.00410136153636 L 370 325 L 359.77536902851193 344.4796540394558 L 376.5442895713979 346.00410136153636" stroke-miterlimit="10"/></g><g transform="translate(-78,-6) scale(1,1)"><rect fill="#C0C0C0" stroke="none" x="335" y="631" width="81.236328125" height="100" opacity="0.2"/></g><g transform="translate(-78,-6) scale(1,1)"><rect fill="#ffffff" stroke="none" x="328" y="624" width="81.236328125" height="100"/></g><g transform="translate(-78,-6) scale(1,1)"><path fill="none" stroke="#000000" d="M 328 624 L 409.236328125 624 L 409.236328125 724 L 328 724 L 328 624 Z Z" stroke-miterlimit="10"/></g><g transform="translate(-78,-6) scale(1,1)"><path fill="none" stroke="#000000" d="M 328 649 L 409.236328125 649" stroke-miterlimit="10"/></g><g transform="translate(-78,-6) scale(1,1)"><path fill="none" stroke="#000000" d="M 328 687 L 409.236328125 687" stroke-miterlimit="10"/></g><g transform="translate(-78,-6) scale(1,1)"><g><path fill="none" stroke="none"/><text fill="#000000" stroke="none" font-family="Arial" font-size="13px" font-style="normal" font-weight="bold" text-decoration="none" x="334.658203125" y="643.5">Department</text></g></g><g transform="translate(-78,-6) scale(1,1)"><g><path fill="none" stroke="none"/><text fill="#000000" stroke="none" font-family="Arial" font-size="13px" font-style="normal" font-weight="normal" text-decoration="none" x="333" y="666.5">-id</text></g></g><g transform="translate(-78,-6) scale(1,1)"><g><path fill="none" stroke="none"/><text fill="#000000" stroke="none" font-family="Arial" font-size="13px" font-style="normal" font-weight="normal" text-decoration="none" x="333" y="681.5">-name</text></g></g><g transform="translate(-78,-6) scale(1,1)"><g><path fill="none" stroke="none"/><text fill="#000000" stroke="none" font-family="Arial" font-size="13px" font-style="normal" font-weight="normal" text-decoration="none" x="333" y="704.5">+getId()</text></g></g><g transform="translate(-78,-6) scale(1,1)"><g><path fill="none" stroke="none"/><text fill="#000000" stroke="none" font-family="Arial" font-size="13px" font-style="normal" font-weight="normal" text-decoration="none" x="333" y="719.5">+getName()</text></g></g><g transform="translate(-78,-6) scale(1,1)"><rect fill="#C0C0C0" stroke="none" x="503" y="247" width="40.7890625" height="44" opacity="0.2"/></g><g transform="translate(-78,-6) scale(1,1)"><rect fill="#ffffff" stroke="none" x="496" y="240" width="40.7890625" height="44"/></g><g transform="translate(-78,-6) scale(1,1)"><path fill="none" stroke="#000000" d="M 496 240 L 536.7890625 240 L 536.7890625 284 L 496 284 L 496 240 Z Z" stroke-miterlimit="10"/></g><g transform="translate(-78,-6) scale(1,1)"><path fill="none" stroke="#000000" d="M 496 265 L 536.7890625 265" stroke-miterlimit="10"/></g><g transform="translate(-78,-6) scale(1,1)"><path fill="none" stroke="#000000" d="M 496 275 L 536.7890625 275" stroke-miterlimit="10"/></g><g transform="translate(-78,-6) scale(1,1)"><g><path fill="none" stroke="none"/><text fill="#000000" stroke="none" font-family="Arial" font-size="13px" font-style="normal" font-weight="bold" text-decoration="none" x="500.85546875" y="259.5">Head</text></g></g><g transform="translate(-78,-6) scale(1,1)"><path fill="none" stroke="#000000" d="M 495 264 L 415 271" stroke-miterlimit="10"/></g><g transform="translate(-78,-6) scale(1,1)"><path fill="#000000" stroke="none" d="M 424.7570620211756 265.92065548373296 L 415 271 L 425.4909236710661 274.30764576819587 L 436.91626178491447 269.08232709381997"/></g><g transform="translate(-78,-6) scale(1,1)"><path fill="none" stroke="#000000" d="M 424.7570620211756 265.92065548373296 L 415 271 L 425.4909236710661 274.30764576819587 L 436.91626178491447 269.08232709381997 L 424.7570620211756 265.92065548373296" stroke-miterlimit="10"/></g><g transform="translate(-78,-6) scale(1,1)"><path fill="none" stroke="#000000" d="M 485.2429379788244 269.07934451626704 L 495 264 L 484.5090763289339 260.69235423180413" stroke-miterlimit="10"/></g><g transform="translate(-78,-6) scale(1,1)"><rect fill="#C0C0C0" stroke="none" x="551" y="647" width="77.9990234375" height="70" opacity="0.2"/></g><g transform="translate(-78,-6) scale(1,1)"><rect fill="#ffffff" stroke="none" x="544" y="640" width="77.9990234375" height="70"/></g><g transform="translate(-78,-6) scale(1,1)"><path fill="none" stroke="#000000" d="M 544 640 L 621.9990234375 640 L 621.9990234375 710 L 544 710 L 544 640 Z Z" stroke-miterlimit="10"/></g><g transform="translate(-78,-6) scale(1,1)"><path fill="none" stroke="#000000" d="M 544 665 L 621.9990234375 665" stroke-miterlimit="10"/></g><g transform="translate(-78,-6) scale(1,1)"><path fill="none" stroke="#000000" d="M 544 688 L 621.9990234375 688" stroke-miterlimit="10"/></g><g transform="translate(-78,-6) scale(1,1)"><g><path fill="none" stroke="none"/><text fill="#000000" stroke="none" font-family="Arial" font-size="13px" font-style="normal" font-weight="bold" text-decoration="none" x="555.180908203125" y="659.5">Campany</text></g></g><g transform="translate(-78,-6) scale(1,1)"><g><path fill="none" stroke="none"/><text fill="#000000" stroke="none" font-family="Arial" font-size="13px" font-style="normal" font-weight="normal" text-decoration="none" x="549" y="682.5">-name</text></g></g><g transform="translate(-78,-6) scale(1,1)"><g><path fill="none" stroke="none"/><text fill="#000000" stroke="none" font-family="Arial" font-size="13px" font-style="normal" font-weight="normal" text-decoration="none" x="549" y="705.5">+getName()</text></g></g><g transform="translate(-78,-6) scale(1,1)"><path fill="none" stroke="#000000" d="M 543 675 L 410 674" stroke-miterlimit="10"/></g><g transform="translate(-78,-6) scale(1,1)"><path fill="none" stroke="#000000" d="M 420.19403722491296 669.8670101552159 L 410 674 L 420.130737995226 678.2858077035821" stroke-miterlimit="10"/></g><g transform="translate(-78,-6) scale(1,1)"><path fill="#000000" stroke="none" d="M 532.805962775087 679.1329898447841 L 543 675 L 532.869262004774 670.7141922964179 L 521.0006218290254 674.8345911415717"/></g><g transform="translate(-78,-6) scale(1,1)"><path fill="none" stroke="#000000" d="M 532.805962775087 679.1329898447841 L 543 675 L 532.869262004774 670.7141922964179 L 521.0006218290254 674.8345911415717 L 532.805962775087 679.1329898447841" stroke-miterlimit="10"/></g><g transform="translate(-78,-6) scale(1,1)"><path fill="none" stroke="#000000" d="M 366 623 L 362 493" stroke-miterlimit="10"/></g><g transform="translate(-78,-6) scale(1,1)"><path fill="none" stroke="#000000" d="M 366.5200762690626 503.02840518337075 L 362 493 L 358.1050232716868 503.28732989098233" stroke-miterlimit="10"/></g><g transform="translate(-78,-6) scale(1,1)"><path fill="#FFFFFF" stroke="none" d="M 361.4799237309374 612.9715948166292 L 366 623 L 369.8949767283133 612.7126701090177 L 365.3233971326866 601.0104068123136"/></g><g transform="translate(-78,-6) scale(1,1)"><path fill="none" stroke="#000000" d="M 361.4799237309374 612.9715948166292 L 366 623 L 369.8949767283133 612.7126701090177 L 365.3233971326866 601.0104068123136 L 361.4799237309374 612.9715948166292" stroke-miterlimit="10"/></g><g transform="translate(-78,-6) scale(1,1)"><rect fill="#C0C0C0" stroke="none" x="559" y="415" width="77.9990234375" height="70" opacity="0.2"/></g><g transform="translate(-78,-6) scale(1,1)"><rect fill="#ffffff" stroke="none" x="552" y="408" width="77.9990234375" height="70"/></g><g transform="translate(-78,-6) scale(1,1)"><path fill="none" stroke="#000000" d="M 552 408 L 629.9990234375 408 L 629.9990234375 478 L 552 478 L 552 408 Z Z" stroke-miterlimit="10"/></g><g transform="translate(-78,-6) scale(1,1)"><path fill="none" stroke="#000000" d="M 552 433 L 629.9990234375 433" stroke-miterlimit="10"/></g><g transform="translate(-78,-6) scale(1,1)"><path fill="none" stroke="#000000" d="M 552 456 L 629.9990234375 456" stroke-miterlimit="10"/></g><g transform="translate(-78,-6) scale(1,1)"><g><path fill="none" stroke="none"/><text fill="#000000" stroke="none" font-family="Arial" font-size="13px" font-style="normal" font-weight="bold" text-decoration="none" x="562.46044921875" y="427.5">Computer</text></g></g><g transform="translate(-78,-6) scale(1,1)"><g><path fill="none" stroke="none"/><text fill="#000000" stroke="none" font-family="Arial" font-size="13px" font-style="normal" font-weight="normal" text-decoration="none" x="557" y="450.5">+name</text></g></g><g transform="translate(-78,-6) scale(1,1)"><g><path fill="none" stroke="none"/><text fill="#000000" stroke="none" font-family="Arial" font-size="13px" font-style="normal" font-weight="normal" text-decoration="none" x="557" y="473.5">+getName()</text></g></g><g transform="translate(-78,-6) scale(1,1)"><path fill="none" stroke="#000000" d="M 552 443 L 400 443" stroke-miterlimit="10"/></g><g transform="translate(-78,-6) scale(1,1)"><path fill="none" stroke="#000000" d="M 541.8373251423759 447.209517756016 L 552 443 L 541.8373251423758 438.790482243984" stroke-miterlimit="10"/></g><g transform="translate(-78,-6) scale(1,1)"><path fill="#C0C0C0" stroke="none" d="M 165.8486328125 426.5 C 165.8486328125 420.1487248 170.9973576125 415 177.3486328125 415 C 183.6999080125 415 188.8486328125 420.1487248 188.8486328125 426.5 C 188.8486328125 432.8512752 183.6999080125 438 177.3486328125 438 C 170.9973576125 438 165.8486328125 432.8512752 165.8486328125 426.5 Z" opacity="0.2"/></g><g transform="translate(-78,-6) scale(1,1)"><path fill="#ffffff" stroke="none" d="M 158.8486328125 419.5 C 158.8486328125 413.1487248 163.9973576125 408 170.3486328125 408 C 176.6999080125 408 181.8486328125 413.1487248 181.8486328125 419.5 C 181.8486328125 425.8512752 176.6999080125 431 170.3486328125 431 C 163.9973576125 431 158.8486328125 425.8512752 158.8486328125 419.5 Z"/></g><g transform="translate(-78,-6) scale(1,1)"><path fill="none" stroke="#000000" d="M 158.8486328125 419.5 C 158.8486328125 413.1487248 163.9973576125 408 170.3486328125 408 C 176.6999080125 408 181.8486328125 413.1487248 181.8486328125 419.5 C 181.8486328125 425.8512752 176.6999080125 431 170.3486328125 431 C 163.9973576125 431 158.8486328125 425.8512752 158.8486328125 419.5 Z" stroke-miterlimit="10"/></g><g transform="translate(-78,-6) scale(1,1)"><path fill="none" stroke="#000000" d="M 144 456 L 196.697265625 456" stroke-miterlimit="10"/></g><g transform="translate(-78,-6) scale(1,1)"><g><path fill="none" stroke="none"/><text fill="#000000" stroke="none" font-family="Arial" font-size="13px" font-style="normal" font-weight="bold" text-decoration="none" x="155.18408203125" y="450.5">Work</text></g></g><g transform="translate(-78,-6) scale(1,1)"><g><path fill="none" stroke="none"/><text fill="#000000" stroke="none" font-family="Arial" font-size="13px" font-style="normal" font-weight="normal" text-decoration="none" x="149" y="473.5">+work()</text></g></g><g transform="translate(-78,-6) scale(1,1)"><path fill="#ffffff" stroke="none" d="M 416 544 L 570.6689453125 544 L 580.6689453125 554 L 580.6689453125 580 L 416 580 L 416 544"/></g><g transform="translate(-78,-6) scale(1,1)"><path fill="none" stroke="#000000" d="M 416 544 L 570.6689453125 544 L 580.6689453125 554 L 580.6689453125 580 L 416 580 L 416 544 L 416 544" stroke-miterlimit="10"/></g><g transform="translate(-78,-6) scale(1,1)"><path fill="none" stroke="#000000" d="M 570.6689453125 544 L 570.6689453125 554 L 580.6689453125 554 L 570.6689453125 544" stroke-miterlimit="10"/></g><g transform="translate(-78,-6) scale(1,1)"><g><path fill="none" stroke="none"/><text fill="#000000" stroke="none" font-family="Arial" font-size="13px" font-style="normal" font-weight="normal" text-decoration="none" x="421" y="562">聚合关系（aggregation）</text><text fill="#000000" stroke="none" font-family="Arial" font-size="13px" font-style="normal" font-weight="normal" text-decoration="none" x="421" y="575">has-a</text></g></g><g transform="translate(-78,-6) scale(1,1)"><path fill="none" stroke="#000000" d="M 364 558 L 415 560" stroke-miterlimit="10" stroke-dasharray="3"/></g><g transform="translate(-78,-6) scale(1,1)"><path fill="#ffffff" stroke="none" d="M 392 752 L 625.3671875 752 L 635.3671875 762 L 635.3671875 788 L 392 788 L 392 752"/></g><g transform="translate(-78,-6) scale(1,1)"><path fill="none" stroke="#000000" d="M 392 752 L 625.3671875 752 L 635.3671875 762 L 635.3671875 788 L 392 788 L 392 752 L 392 752" stroke-miterlimit="10"/></g><g transform="translate(-78,-6) scale(1,1)"><path fill="none" stroke="#000000" d="M 625.3671875 752 L 625.3671875 762 L 635.3671875 762 L 625.3671875 752" stroke-miterlimit="10"/></g><g transform="translate(-78,-6) scale(1,1)"><g><path fill="none" stroke="none"/><text fill="#000000" stroke="none" font-family="Arial" font-size="13px" font-style="normal" font-weight="normal" text-decoration="none" x="397" y="770">组合关系（合成关系）（composition）</text><text fill="#000000" stroke="none" font-family="Arial" font-size="13px" font-style="normal" font-weight="normal" text-decoration="none" x="397" y="783">contains-a</text></g></g><g transform="translate(-78,-6) scale(1,1)"><path fill="none" stroke="#000000" d="M 476 674 L 506 751" stroke-miterlimit="10" stroke-dasharray="3"/></g><g transform="translate(-78,-6) scale(1,1)"><path fill="#ffffff" stroke="none" d="M 424 360 L 575.0380859375 360 L 585.0380859375 370 L 585.0380859375 396 L 424 396 L 424 360"/></g><g transform="translate(-78,-6) scale(1,1)"><path fill="none" stroke="#000000" d="M 424 360 L 575.0380859375 360 L 585.0380859375 370 L 585.0380859375 396 L 424 396 L 424 360 L 424 360" stroke-miterlimit="10"/></g><g transform="translate(-78,-6) scale(1,1)"><path fill="none" stroke="#000000" d="M 575.0380859375 360 L 575.0380859375 370 L 585.0380859375 370 L 575.0380859375 360" stroke-miterlimit="10"/></g><g transform="translate(-78,-6) scale(1,1)"><g><path fill="none" stroke="none"/><text fill="#000000" stroke="none" font-family="Arial" font-size="13px" font-style="normal" font-weight="normal" text-decoration="none" x="429" y="378">关联关系（association）  </text></g></g><g transform="translate(-78,-6) scale(1,1)"><path fill="none" stroke="#000000" d="M 476 443 L 496 398" stroke-miterlimit="10" stroke-dasharray="3"/></g><g transform="translate(-78,-6) scale(1,1)"><path fill="#ffffff" stroke="none" d="M 448 160 L 614.9453125 160 L 624.9453125 170 L 624.9453125 196 L 448 196 L 448 160"/></g><g transform="translate(-78,-6) scale(1,1)"><path fill="none" stroke="#000000" d="M 448 160 L 614.9453125 160 L 624.9453125 170 L 624.9453125 196 L 448 196 L 448 160 L 448 160" stroke-miterlimit="10"/></g><g transform="translate(-78,-6) scale(1,1)"><path fill="none" stroke="#000000" d="M 614.9453125 160 L 614.9453125 170 L 624.9453125 170 L 614.9453125 160" stroke-miterlimit="10"/></g><g transform="translate(-78,-6) scale(1,1)"><g><path fill="none" stroke="none"/><text fill="#000000" stroke="none" font-family="Arial" font-size="13px" font-style="normal" font-weight="normal" text-decoration="none" x="453" y="178">泛化关系（generalization） </text><text fill="#000000" stroke="none" font-family="Arial" font-size="13px" font-style="normal" font-weight="normal" text-decoration="none" x="453" y="191">is-a</text></g></g><g transform="translate(-78,-6) scale(1,1)"><path fill="none" stroke="#000000" d="M 371 190 L 447 184" stroke-miterlimit="10" stroke-dasharray="3"/></g><g transform="translate(-78,-6) scale(1,1)"><path fill="#ffffff" stroke="none" d="M 160 344 L 284.314453125 344 L 294.314453125 354 L 294.314453125 380 L 160 380 L 160 344"/></g><g transform="translate(-78,-6) scale(1,1)"><path fill="none" stroke="#000000" d="M 160 344 L 284.314453125 344 L 294.314453125 354 L 294.314453125 380 L 160 380 L 160 344 L 160 344" stroke-miterlimit="10"/></g><g transform="translate(-78,-6) scale(1,1)"><path fill="none" stroke="#000000" d="M 284.314453125 344 L 284.314453125 354 L 294.314453125 354 L 284.314453125 344" stroke-miterlimit="10"/></g><g transform="translate(-78,-6) scale(1,1)"><g><path fill="none" stroke="none"/><text fill="#000000" stroke="none" font-family="Arial" font-size="13px" font-style="normal" font-weight="normal" text-decoration="none" x="165" y="362">实现（Realization）</text><text fill="#000000" stroke="none" font-family="Arial" font-size="13px" font-style="normal" font-weight="normal" text-decoration="none" x="165" y="375">is-like-a</text></g></g><g transform="translate(-78,-6) scale(1,1)"><path fill="none" stroke="#000000" d="M 367 358 L 256 432 L 235 382" stroke-miterlimit="10" stroke-dasharray="3"/></g><g transform="translate(-78,-6) scale(1,1)"><path fill="#ffffff" stroke="none" d="M 88 112 L 279.51708984375 112 L 289.51708984375 122 L 289.51708984375 135 L 88 135 L 88 112"/></g><g transform="translate(-78,-6) scale(1,1)"><path fill="none" stroke="#000000" d="M 88 112 L 279.51708984375 112 L 289.51708984375 122 L 289.51708984375 135 L 88 135 L 88 112 L 88 112" stroke-miterlimit="10"/></g><g transform="translate(-78,-6) scale(1,1)"><path fill="none" stroke="#000000" d="M 279.51708984375 112 L 279.51708984375 122 L 289.51708984375 122 L 279.51708984375 112" stroke-miterlimit="10"/></g><g transform="translate(-78,-6) scale(1,1)"><g><path fill="none" stroke="none"/><text fill="#000000" stroke="none" font-family="Arial" font-size="13px" font-style="normal" font-weight="normal" text-decoration="none" x="93" y="130">依赖关系（Dependency）use-a</text></g></g><g transform="translate(-78,-6) scale(1,1)"><path fill="none" stroke="#000000" d="M 266 73 L 209 111" stroke-miterlimit="10" stroke-dasharray="3"/></g><g transform="translate(-78,-6) scale(1,1)"><path fill="none" stroke="#000000" d="M 319 442 L 181.8486328125 429.15597098214283" stroke-miterlimit="10"/></g></g></svg>