<svg xmlns="http://www.w3.org/2000/svg" xmlns:xlink="http://www.w3.org/1999/xlink" id="processonSvg1000" viewBox="189.0 31.0 699.5 287.0" width="699.5" height="287.0"><defs id="ProcessOnDefs1001"><marker id="ProcessOnMarker1017" markerUnits="userSpaceOnUse" orient="auto" markerWidth="10.0" markerHeight="10.0" viewBox="-1.0 -1.0 10.0 10.0" refX="8.0" refY="4.0"><path id="ProcessOnPath1018" d="M0 4.0A4.0 4.0 0 0 1 4.0 0A4.0 4.0 0 1 1 0 4.0" stroke="#323232" stroke-width="2.0" fill="#323232"/></marker><marker id="ProcessOnMarker1019" markerUnits="userSpaceOnUse" orient="auto" markerWidth="10.0" markerHeight="10.0" viewBox="-1.0 -1.0 10.0 10.0" refX="0.0" refY="4.0"><path id="ProcessOnPath1020" d="M0 4.0A4.0 4.0 0 0 1 4.0 0A4.0 4.0 0 1 1 0 4.0" stroke="#323232" stroke-width="2.0" fill="#323232"/></marker><marker id="ProcessOnMarker1039" markerUnits="userSpaceOnUse" orient="auto" markerWidth="10.0" markerHeight="10.0" viewBox="-1.0 -1.0 10.0 10.0" refX="0.0" refY="4.0"><path id="ProcessOnPath1040" d="M0 4.0A4.0 4.0 0 0 1 4.0 0A4.0 4.0 0 1 1 0 4.0" stroke="#323232" stroke-width="2.0" fill="#323232"/></marker><marker id="ProcessOnMarker1043" markerUnits="userSpaceOnUse" orient="auto" markerWidth="10.0" markerHeight="10.0" viewBox="-1.0 -1.0 10.0 10.0" refX="0.0" refY="4.0"><path id="ProcessOnPath1044" d="M0 4.0A4.0 4.0 0 0 1 4.0 0A4.0 4.0 0 1 1 0 4.0" stroke="#323232" stroke-width="2.0" fill="#323232"/></marker><marker id="ProcessOnMarker1047" markerUnits="userSpaceOnUse" orient="auto" markerWidth="10.0" markerHeight="10.0" viewBox="-1.0 -1.0 10.0 10.0" refX="0.0" refY="4.0"><path id="ProcessOnPath1048" d="M0 4.0A4.0 4.0 0 0 1 4.0 0A4.0 4.0 0 1 1 0 4.0" stroke="#323232" stroke-width="2.0" fill="#323232"/></marker><marker id="ProcessOnMarker1051" markerUnits="userSpaceOnUse" orient="auto" markerWidth="10.0" markerHeight="10.0" viewBox="-1.0 -1.0 10.0 10.0" refX="0.0" refY="4.0"><path id="ProcessOnPath1052" d="M0 4.0A4.0 4.0 0 0 1 4.0 0A4.0 4.0 0 1 1 0 4.0" stroke="#323232" stroke-width="2.0" fill="#323232"/></marker></defs><g id="ProcessOnG1002"><path id="ProcessOnPath1003" d="M189.0 31.0H888.5V318.0H189.0V31.0Z" fill="none"/><g id="ProcessOnG1004"><g id="ProcessOnG1005" transform="matrix(1.0,0.0,0.0,1.0,218.0,162.0)" opacity="1.0"><path id="ProcessOnPath1006" d="M0.0 0.0L614.0 0.0L614.0 136.0L0.0 136.0Z" stroke="#323232" stroke-width="1.0" stroke-dasharray="1.0 1.5" opacity="1.0" fill="none"/></g><g id="ProcessOnG1007" transform="matrix(1.0,0.0,0.0,1.0,475.0,125.0)" opacity="1.0"><path id="ProcessOnPath1008" d="M0.0 4.0Q0.0 0.0 4.0 0.0L96.0 0.0Q100.0 0.0 100.0 4.0L100.0 25.0Q100.0 29.0 96.0 29.0L4.0 29.0Q0.0 29.0 0.0 25.0Z" stroke="#323232" stroke-width="2.0" stroke-dasharray="none" opacity="1.0" fill="#ffffff"/><g id="ProcessOnG1009" transform="matrix(1.0,0.0,0.0,1.0,10.0,6.375)"><text id="ProcessOnText1010" fill="#000000" font-size="13" x="39.0" y="13.325" font-family="微软雅黑" font-weight="normal" font-style="normal" text-decoration="none" family="微软雅黑" text-anchor="middle" size="13">主路由器</text></g></g><g id="ProcessOnG1011" transform="matrix(1.0,0.0,0.0,1.0,475.0,51.0)" opacity="1.0"><path id="ProcessOnPath1012" d="M0.0 4.0Q0.0 0.0 4.0 0.0L96.0 0.0Q100.0 0.0 100.0 4.0L100.0 27.0Q100.0 31.0 96.0 31.0L4.0 31.0Q0.0 31.0 0.0 27.0Z" stroke="#323232" stroke-width="2.0" stroke-dasharray="none" opacity="1.0" fill="#ffffff"/><g id="ProcessOnG1013" transform="matrix(1.0,0.0,0.0,1.0,10.0,7.375)"><text id="ProcessOnText1014" fill="#000000" font-size="13" x="39.0" y="13.325" font-family="微软雅黑" font-weight="normal" font-style="normal" text-decoration="none" family="微软雅黑" text-anchor="middle" size="13">光猫</text></g></g><g id="ProcessOnG1015"><path id="ProcessOnPath1016" d="M525.0 91.0L525.0 103.5L525.0 103.5L525.0 116.0" stroke="#323232" stroke-width="2.0" stroke-dasharray="none" fill="none" marker-start="url(#ProcessOnMarker1017)" marker-end="url(#ProcessOnMarker1019)"/></g><g id="ProcessOnG1021" transform="matrix(1.0,0.0,0.0,1.0,244.0,201.0)" opacity="1.0"><path id="ProcessOnPath1022" d="M0.0 4.0Q0.0 0.0 4.0 0.0L93.0 0.0Q97.0 0.0 97.0 4.0L97.0 27.0Q97.0 31.0 93.0 31.0L4.0 31.0Q0.0 31.0 0.0 27.0Z" stroke="#323232" stroke-width="2.0" stroke-dasharray="none" opacity="1.0" fill="#ffffff"/><g id="ProcessOnG1023" transform="matrix(1.0,0.0,0.0,1.0,10.0,7.375)"><text id="ProcessOnText1024" fill="#000000" font-size="13" x="37.5" y="13.325" font-family="微软雅黑" font-weight="normal" font-style="normal" text-decoration="none" family="微软雅黑" text-anchor="middle" size="13">子路由器1</text></g></g><g id="ProcessOnG1025" transform="matrix(1.0,0.0,0.0,1.0,397.0,201.0)" opacity="1.0"><path id="ProcessOnPath1026" d="M0.0 4.0Q0.0 0.0 4.0 0.0L93.0 0.0Q97.0 0.0 97.0 4.0L97.0 27.0Q97.0 31.0 93.0 31.0L4.0 31.0Q0.0 31.0 0.0 27.0Z" stroke="#323232" stroke-width="2.0" stroke-dasharray="none" opacity="1.0" fill="#ffffff"/><g id="ProcessOnG1027" transform="matrix(1.0,0.0,0.0,1.0,10.0,7.375)"><text id="ProcessOnText1028" fill="#000000" font-size="13" x="37.5" y="13.325" font-family="微软雅黑" font-weight="normal" font-style="normal" text-decoration="none" family="微软雅黑" text-anchor="middle" size="13">子路由器1</text></g></g><g id="ProcessOnG1029" transform="matrix(1.0,0.0,0.0,1.0,545.0,201.0)" opacity="1.0"><path id="ProcessOnPath1030" d="M0.0 4.0Q0.0 0.0 4.0 0.0L93.0 0.0Q97.0 0.0 97.0 4.0L97.0 27.0Q97.0 31.0 93.0 31.0L4.0 31.0Q0.0 31.0 0.0 27.0Z" stroke="#323232" stroke-width="2.0" stroke-dasharray="none" opacity="1.0" fill="#ffffff"/><g id="ProcessOnG1031" transform="matrix(1.0,0.0,0.0,1.0,10.0,7.375)"><text id="ProcessOnText1032" fill="#000000" font-size="13" x="37.5" y="13.325" font-family="微软雅黑" font-weight="normal" font-style="normal" text-decoration="none" family="微软雅黑" text-anchor="middle" size="13">子路由器1</text></g></g><g id="ProcessOnG1033" transform="matrix(1.0,0.0,0.0,1.0,696.0,201.0)" opacity="1.0"><path id="ProcessOnPath1034" d="M0.0 4.0Q0.0 0.0 4.0 0.0L93.0 0.0Q97.0 0.0 97.0 4.0L97.0 27.0Q97.0 31.0 93.0 31.0L4.0 31.0Q0.0 31.0 0.0 27.0Z" stroke="#323232" stroke-width="2.0" stroke-dasharray="none" opacity="1.0" fill="#ffffff"/><g id="ProcessOnG1035" transform="matrix(1.0,0.0,0.0,1.0,10.0,7.375)"><text id="ProcessOnText1036" fill="#000000" font-size="13" x="37.5" y="13.325" font-family="微软雅黑" font-weight="normal" font-style="normal" text-decoration="none" family="微软雅黑" text-anchor="middle" size="13">子路由器1</text></g></g><g id="ProcessOnG1037"><path id="ProcessOnPath1038" d="M525.0 154.0L525.0 177.5L292.5 177.5L292.5 192.0" stroke="#323232" stroke-width="2.0" stroke-dasharray="none" fill="none" marker-end="url(#ProcessOnMarker1039)"/></g><g id="ProcessOnG1041"><path id="ProcessOnPath1042" d="M525.0 154.0L525.0 177.5L445.5 177.5L445.5 192.0" stroke="#323232" stroke-width="2.0" stroke-dasharray="none" fill="none" marker-end="url(#ProcessOnMarker1043)"/></g><g id="ProcessOnG1045"><path id="ProcessOnPath1046" d="M525.0 154.0L525.0 177.5L593.5 177.5L593.5 192.0" stroke="#323232" stroke-width="2.0" stroke-dasharray="none" fill="none" marker-end="url(#ProcessOnMarker1047)"/></g><g id="ProcessOnG1049"><path id="ProcessOnPath1050" d="M525.0 154.0L525.0 177.5L744.5 177.5L744.5 192.0" stroke="#323232" stroke-width="2.0" stroke-dasharray="none" fill="none" marker-end="url(#ProcessOnMarker1051)"/></g><g id="ProcessOnG1053" transform="matrix(1.0,0.0,0.0,1.0,487.0,94.0)" opacity="1.0"><path id="ProcessOnPath1054" d="M0.0 0.0L160.0 0.0L160.0 40.0L0.0 40.0Z" stroke="none" stroke-width="0.0" stroke-dasharray="none" opacity="1.0" fill="none"/><g id="ProcessOnG1055" transform="matrix(1.0,0.0,0.0,1.0,0.0,11.875)"><text id="ProcessOnText1056" fill="#000000" font-size="13" x="79.0" y="13.325" font-family="微软雅黑" font-weight="normal" font-style="normal" text-decoration="none" family="微软雅黑" text-anchor="middle" size="13">192.168.2.1</text></g></g><g id="ProcessOnG1057" transform="matrix(1.0,0.0,0.0,1.0,209.0,226.0)" opacity="1.0"><path id="ProcessOnPath1058" d="M0.0 0.0L160.0 0.0L160.0 40.0L0.0 40.0Z" stroke="none" stroke-width="0.0" stroke-dasharray="none" opacity="1.0" fill="none"/><g id="ProcessOnG1059" transform="matrix(1.0,0.0,0.0,1.0,0.0,11.875)"><text id="ProcessOnText1060" fill="#000000" font-size="13" x="79.0" y="13.325" font-family="微软雅黑" font-weight="normal" font-style="normal" text-decoration="none" family="微软雅黑" text-anchor="middle" size="13">192.168.3.100~129</text></g></g><g id="ProcessOnG1061" transform="matrix(1.0,0.0,0.0,1.0,365.5,226.0)" opacity="1.0"><path id="ProcessOnPath1062" d="M0.0 0.0L160.0 0.0L160.0 40.0L0.0 40.0Z" stroke="none" stroke-width="0.0" stroke-dasharray="none" opacity="1.0" fill="none"/><g id="ProcessOnG1063" transform="matrix(1.0,0.0,0.0,1.0,0.0,11.875)"><text id="ProcessOnText1064" fill="#000000" font-size="13" x="79.0" y="13.325" font-family="微软雅黑" font-weight="normal" font-style="normal" text-decoration="none" family="微软雅黑" text-anchor="middle" size="13">192.168.3.130~149</text></g></g><g id="ProcessOnG1065" transform="matrix(1.0,0.0,0.0,1.0,513.5,226.0)" opacity="1.0"><path id="ProcessOnPath1066" d="M0.0 0.0L160.0 0.0L160.0 40.0L0.0 40.0Z" stroke="none" stroke-width="0.0" stroke-dasharray="none" opacity="1.0" fill="none"/><g id="ProcessOnG1067" transform="matrix(1.0,0.0,0.0,1.0,0.0,11.875)"><text id="ProcessOnText1068" fill="#000000" font-size="13" x="79.0" y="13.325" font-family="微软雅黑" font-weight="normal" font-style="normal" text-decoration="none" family="微软雅黑" text-anchor="middle" size="13">192.168.3.150~179</text></g></g><g id="ProcessOnG1069" transform="matrix(1.0,0.0,0.0,1.0,664.5,226.0)" opacity="1.0"><path id="ProcessOnPath1070" d="M0.0 0.0L160.0 0.0L160.0 40.0L0.0 40.0Z" stroke="none" stroke-width="0.0" stroke-dasharray="none" opacity="1.0" fill="none"/><g id="ProcessOnG1071" transform="matrix(1.0,0.0,0.0,1.0,0.0,11.875)"><text id="ProcessOnText1072" fill="#000000" font-size="13" x="79.0" y="13.325" font-family="微软雅黑" font-weight="normal" font-style="normal" text-decoration="none" family="微软雅黑" text-anchor="middle" size="13">192.168.3.180~199</text></g></g><g id="ProcessOnG1073" transform="matrix(1.0,0.0,0.0,1.0,255.0,170.0)" opacity="1.0"><path id="ProcessOnPath1074" d="M0.0 0.0L160.0 0.0L160.0 40.0L0.0 40.0Z" stroke="none" stroke-width="0.0" stroke-dasharray="none" opacity="1.0" fill="none"/><g id="ProcessOnG1075" transform="matrix(1.0,0.0,0.0,1.0,0.0,11.875)"><text id="ProcessOnText1076" fill="#000000" font-size="13" x="79.0" y="13.325" font-family="微软雅黑" font-weight="normal" font-style="normal" text-decoration="none" family="微软雅黑" text-anchor="middle" size="13">192.168.3.1</text></g></g><g id="ProcessOnG1077" transform="matrix(1.0,0.0,0.0,1.0,409.5,170.0)" opacity="1.0"><path id="ProcessOnPath1078" d="M0.0 0.0L160.0 0.0L160.0 40.0L0.0 40.0Z" stroke="none" stroke-width="0.0" stroke-dasharray="none" opacity="1.0" fill="none"/><g id="ProcessOnG1079" transform="matrix(1.0,0.0,0.0,1.0,0.0,11.875)"><text id="ProcessOnText1080" fill="#000000" font-size="13" x="79.0" y="13.325" font-family="微软雅黑" font-weight="normal" font-style="normal" text-decoration="none" family="微软雅黑" text-anchor="middle" size="13">192.168.3.2</text></g></g><g id="ProcessOnG1081" transform="matrix(1.0,0.0,0.0,1.0,554.5,170.0)" opacity="1.0"><path id="ProcessOnPath1082" d="M0.0 0.0L160.0 0.0L160.0 40.0L0.0 40.0Z" stroke="none" stroke-width="0.0" stroke-dasharray="none" opacity="1.0" fill="none"/><g id="ProcessOnG1083" transform="matrix(1.0,0.0,0.0,1.0,0.0,11.875)"><text id="ProcessOnText1084" fill="#000000" font-size="13" x="79.0" y="13.325" font-family="微软雅黑" font-weight="normal" font-style="normal" text-decoration="none" family="微软雅黑" text-anchor="middle" size="13">192.168.3.3</text></g></g><g id="ProcessOnG1085" transform="matrix(1.0,0.0,0.0,1.0,708.5,170.0)" opacity="1.0"><path id="ProcessOnPath1086" d="M0.0 0.0L160.0 0.0L160.0 40.0L0.0 40.0Z" stroke="none" stroke-width="0.0" stroke-dasharray="none" opacity="1.0" fill="none"/><g id="ProcessOnG1087" transform="matrix(1.0,0.0,0.0,1.0,0.0,11.875)"><text id="ProcessOnText1088" fill="#000000" font-size="13" x="79.0" y="13.325" font-family="微软雅黑" font-weight="normal" font-style="normal" text-decoration="none" family="微软雅黑" text-anchor="middle" size="13">192.168.3.4</text></g></g><g id="ProcessOnG1089" transform="matrix(1.0,0.0,0.0,1.0,445.0,258.0)" opacity="1.0"><path id="ProcessOnPath1090" d="M0.0 0.0L160.0 0.0L160.0 40.0L0.0 40.0Z" stroke="none" stroke-width="0.0" stroke-dasharray="none" opacity="1.0" fill="none"/><g id="ProcessOnG1091" transform="matrix(1.0,0.0,0.0,1.0,0.0,11.875)"><text id="ProcessOnText1092" fill="#000000" font-size="13" x="79.0" y="13.325" font-family="微软雅黑" font-weight="normal" font-style="normal" text-decoration="none" family="微软雅黑" text-anchor="middle" size="13">WDS组网</text></g></g><g id="ProcessOnG1093" transform="matrix(1.0,0.0,0.0,1.0,616.0,124.5)" opacity="1.0"><path id="ProcessOnPath1094" d="M0.0 4.0Q0.0 0.0 4.0 0.0L104.0 0.0Q108.0 0.0 108.0 4.0L108.0 26.0Q108.0 30.0 104.0 30.0L4.0 30.0Q0.0 30.0 0.0 26.0Z" stroke="#323232" stroke-width="2.0" stroke-dasharray="none" opacity="1.0" fill="#ffffff"/><g id="ProcessOnG1095" transform="matrix(1.0,0.0,0.0,1.0,10.0,6.875)"><text id="ProcessOnText1096" fill="#000000" font-size="13" x="43.0" y="13.325" font-family="微软雅黑" font-weight="normal" font-style="normal" text-decoration="none" family="微软雅黑" text-anchor="middle" size="13">视频监控</text></g></g><g id="ProcessOnG1097"><path id="ProcessOnPath1098" d="M575.0 139.5L595.5 139.5L595.5 139.5L616.0 139.5" stroke="#323232" stroke-width="2.0" stroke-dasharray="none" fill="none"/></g></g></g></svg>