<svg xmlns="http://www.w3.org/2000/svg" xmlns:xlink="http://www.w3.org/1999/xlink" id="processonSvg1000" viewBox="70.0 100.0 517.0 267.0" width="517.0" height="267.0"><defs id="ProcessOnDefs1001"><marker id="ProcessOnMarker1047" markerUnits="userSpaceOnUse" orient="auto" markerWidth="16.23606797749979" markerHeight="10.550836550532098" viewBox="-1.0 -1.3763819204711736 16.23606797749979 10.550836550532098" refX="-1.0" refY="3.8990363547948754"><path id="ProcessOnPath1048" d="M12.0 3.8990363547948754L0.0 7.798072709589751V0.0Z" stroke="#323232" stroke-width="2.0" fill="#323232" transform="matrix(1.0,0.0,0.0,1.0,0.0,0.0)"/></marker><marker id="ProcessOnMarker1054" markerUnits="userSpaceOnUse" orient="auto" markerWidth="16.23606797749979" markerHeight="10.550836550532098" viewBox="-1.0 -1.3763819204711736 16.23606797749979 10.550836550532098" refX="-1.0" refY="3.8990363547948754"><path id="ProcessOnPath1055" d="M12.0 3.8990363547948754L0.0 7.798072709589751V0.0Z" stroke="#323232" stroke-width="2.0" fill="#323232" transform="matrix(1.0,0.0,0.0,1.0,0.0,0.0)"/></marker><marker id="ProcessOnMarker1061" markerUnits="userSpaceOnUse" orient="auto" markerWidth="16.23606797749979" markerHeight="10.550836550532098" viewBox="-1.0 -1.3763819204711736 16.23606797749979 10.550836550532098" refX="-1.0" refY="3.8990363547948754"><path id="ProcessOnPath1062" d="M12.0 3.8990363547948754L0.0 7.798072709589751V0.0Z" stroke="#323232" stroke-width="2.0" fill="#323232" transform="matrix(1.0,0.0,0.0,1.0,0.0,0.0)"/></marker><marker id="ProcessOnMarker1068" markerUnits="userSpaceOnUse" orient="auto" markerWidth="16.23606797749979" markerHeight="10.550836550532098" viewBox="-1.0 -1.3763819204711736 16.23606797749979 10.550836550532098" refX="-1.0" refY="3.8990363547948754"><path id="ProcessOnPath1069" d="M12.0 3.8990363547948754L0.0 7.798072709589751V0.0Z" stroke="#323232" stroke-width="2.0" fill="#323232" transform="matrix(1.0,0.0,0.0,1.0,0.0,0.0)"/></marker></defs><g id="ProcessOnG1002"><path id="ProcessOnPath1003" d="M70.0 100.0H587.0V367.0H70.0V100.0Z" fill="none"/><g id="ProcessOnG1004"><g id="ProcessOnG1005" transform="matrix(1.0,0.0,0.0,1.0,90.0,120.0)" opacity="1.0"><path id="ProcessOnPath1006" d="M0.0 4.0Q0.0 0.0 4.0 0.0L177.0 0.0Q181.0 0.0 181.0 4.0L181.0 217.91791044776122Q181.0 221.91791044776122 177.0 221.91791044776122L4.0 221.91791044776122Q0.0 221.91791044776122 0.0 217.91791044776122Z" stroke="#323232" stroke-width="2.0" stroke-dasharray="none" opacity="1.0" fill="#ffffff"/></g><g id="ProcessOnG1007" transform="matrix(1.0,0.0,0.0,1.0,110.88461538461539,129.31716417910448)" opacity="1.0"><path id="ProcessOnPath1008" d="M0.0 4.0Q0.0 0.0 4.0 0.0L135.23076923076923 0.0Q139.23076923076923 0.0 139.23076923076923 4.0L139.23076923076923 185.73134328358208Q139.23076923076923 189.73134328358208 135.23076923076923 189.73134328358208L4.0 189.73134328358208Q0.0 189.73134328358208 0.0 185.73134328358208Z" stroke="#323232" stroke-width="2.0" stroke-dasharray="none" opacity="1.0" fill="#ffffff"/></g><g id="ProcessOnG1009" transform="matrix(1.0,0.0,0.0,1.0,130.77472527472528,141.17537313432837)" opacity="1.0"><path id="ProcessOnPath1010" d="M0.0 4.0Q0.0 0.0 4.0 0.0L95.45054945054946 0.0Q99.45054945054946 0.0 99.45054945054946 4.0L99.45054945054946 148.46268656716418Q99.45054945054946 152.46268656716418 95.45054945054946 152.46268656716418L4.0 152.46268656716418Q0.0 152.46268656716418 0.0 148.46268656716418Z" stroke="#323232" stroke-width="2.0" stroke-dasharray="none" opacity="1.0" fill="#ffe6cc"/></g><g id="ProcessOnG1011" transform="matrix(1.0,0.0,0.0,1.0,100.93956043956044,313.11940298507466)" opacity="1.0"><path id="ProcessOnPath1012" d="M0.0 0.0L159.12087912087912 0.0L159.12087912087912 33.88059701492537L0.0 33.88059701492537Z" stroke="none" stroke-width="0.0" stroke-dasharray="none" opacity="1.0" fill="none"/><g id="ProcessOnG1013" transform="matrix(1.0,0.0,0.0,1.0,0.0,8.815298507462686)"><text id="ProcessOnText1014" fill="#000000" font-size="13" x="78.56043956043956" y="13.325" font-family="微软雅黑" font-weight="normal" font-style="normal" text-decoration="none" family="微软雅黑" text-anchor="middle" size="13">JFrame</text></g></g><g id="ProcessOnG1015" transform="matrix(1.0,0.0,0.0,1.0,100.93956043956044,289.4029850746269)" opacity="1.0"><path id="ProcessOnPath1016" d="M0.0 0.0L159.12087912087912 0.0L159.12087912087912 33.88059701492537L0.0 33.88059701492537Z" stroke="none" stroke-width="0.0" stroke-dasharray="none" opacity="1.0" fill="none"/><g id="ProcessOnG1017" transform="matrix(1.0,0.0,0.0,1.0,0.0,8.815298507462686)"><text id="ProcessOnText1018" fill="#000000" font-size="13" x="78.56043956043956" y="13.325" font-family="微软雅黑" font-weight="normal" font-style="normal" text-decoration="none" family="微软雅黑" text-anchor="middle" size="13">JPanel</text></g></g><g id="ProcessOnG1019" transform="matrix(1.0,0.0,0.0,1.0,100.93956043956044,263.9925373134329)" opacity="1.0"><path id="ProcessOnPath1020" d="M0.0 0.0L159.12087912087912 0.0L159.12087912087912 33.88059701492537L0.0 33.88059701492537Z" stroke="none" stroke-width="0.0" stroke-dasharray="none" opacity="1.0" fill="none"/><g id="ProcessOnG1021" transform="matrix(1.0,0.0,0.0,1.0,0.0,8.815298507462686)"><text id="ProcessOnText1022" fill="#000000" font-size="13" x="78.56043956043956" y="13.325" font-family="微软雅黑" font-weight="normal" font-style="normal" text-decoration="none" family="微软雅黑" text-anchor="middle" size="13">Canvas</text></g></g><g id="ProcessOnG1023" transform="matrix(1.0,0.0,0.0,1.0,142.21153846153845,156.42164179104478)" opacity="1.0"><path id="ProcessOnPath1024" d="M0.0 4.0Q0.0 0.0 4.0 0.0L72.57692307692308 0.0Q76.57692307692308 0.0 76.57692307692308 4.0L76.57692307692308 100.18283582089552Q76.57692307692308 104.18283582089552 72.57692307692308 104.18283582089552L4.0 104.18283582089552Q0.0 104.18283582089552 0.0 100.18283582089552Z" stroke="#323232" stroke-width="2.0" stroke-dasharray="none" opacity="1.0" fill="#ffffff"/></g><g id="ProcessOnG1025" transform="matrix(1.0,0.0,0.0,1.0,100.93956043956044,191.57276119402985)" opacity="1.0"><path id="ProcessOnPath1026" d="M0.0 0.0L159.12087912087912 0.0L159.12087912087912 33.88059701492537L0.0 33.88059701492537Z" stroke="none" stroke-width="0.0" stroke-dasharray="none" opacity="1.0" fill="none"/><g id="ProcessOnG1027" transform="matrix(1.0,0.0,0.0,1.0,0.0,8.815298507462686)"><text id="ProcessOnText1028" fill="#000000" font-size="13" x="78.56043956043956" y="13.325" font-family="微软雅黑" font-weight="normal" font-style="normal" text-decoration="none" family="微软雅黑" text-anchor="middle" size="13">Image</text></g></g><g id="ProcessOnG1029" transform="matrix(1.0,0.0,0.0,1.0,336.0,120.0)" opacity="1.0"><path id="ProcessOnPath1030" d="M0.0 4.0Q0.0 0.0 4.0 0.0L121.0 0.0Q125.0 0.0 125.0 4.0L125.0 53.0Q125.0 57.0 121.0 57.0L4.0 57.0Q0.0 57.0 0.0 53.0Z" stroke="#323232" stroke-width="2.0" stroke-dasharray="none" opacity="1.0" fill="#ff9999"/><g id="ProcessOnG1031" transform="matrix(1.0,0.0,0.0,1.0,10.0,20.375)"><text id="ProcessOnText1032" fill="#000000" font-size="13" x="51.5" y="13.325" font-family="微软雅黑" font-weight="normal" font-style="normal" text-decoration="none" family="微软雅黑" text-anchor="middle" size="13">Canvas Thread</text></g></g><g id="ProcessOnG1033" transform="matrix(1.0,0.0,0.0,1.0,336.0,201.5)" opacity="1.0"><path id="ProcessOnPath1034" d="M0.0 4.0Q0.0 0.0 4.0 0.0L121.0 0.0Q125.0 0.0 125.0 4.0L125.0 53.0Q125.0 57.0 121.0 57.0L4.0 57.0Q0.0 57.0 0.0 53.0Z" stroke="#323232" stroke-width="2.0" stroke-dasharray="none" opacity="1.0" fill="#66ffff"/><g id="ProcessOnG1035" transform="matrix(1.0,0.0,0.0,1.0,10.0,20.375)"><text id="ProcessOnText1036" fill="#000000" font-size="13" x="51.5" y="13.325" font-family="微软雅黑" font-weight="normal" font-style="normal" text-decoration="none" family="微软雅黑" text-anchor="middle" size="13">Serve Thread</text></g></g><g id="ProcessOnG1037" transform="matrix(1.0,0.0,0.0,1.0,336.0,284.9179104477612)" opacity="1.0"><path id="ProcessOnPath1038" d="M0.0 4.0Q0.0 0.0 4.0 0.0L121.0 0.0Q125.0 0.0 125.0 4.0L125.0 53.0Q125.0 57.0 121.0 57.0L4.0 57.0Q0.0 57.0 0.0 53.0Z" stroke="#323232" stroke-width="2.0" stroke-dasharray="none" opacity="1.0" fill="#ccffcc"/><g id="ProcessOnG1039" transform="matrix(1.0,0.0,0.0,1.0,10.0,20.375)"><text id="ProcessOnText1040" fill="#000000" font-size="13" x="51.5" y="13.325" font-family="微软雅黑" font-weight="normal" font-style="normal" text-decoration="none" family="微软雅黑" text-anchor="middle" size="13">Circle Thread</text></g></g><g id="ProcessOnG1041" transform="matrix(1.0,0.0,0.0,1.0,497.0,195.0)" opacity="1.0"><path id="ProcessOnPath1042" d="M0.0 35.0C0.0 -11.666666666666666 70.0 -11.666666666666666 70.0 35.0C70.0 81.66666666666667 0.0 81.66666666666667 0.0 35.0Z" stroke="#323232" stroke-width="2.0" stroke-dasharray="none" opacity="1.0" fill="#ffff66"/><g id="ProcessOnG1043" transform="matrix(1.0,0.0,0.0,1.0,10.0,26.875)"><text id="ProcessOnText1044" fill="#000000" font-size="13" x="24.0" y="13.325" font-family="微软雅黑" font-weight="normal" font-style="normal" text-decoration="none" family="微软雅黑" text-anchor="middle" size="13">Circles</text></g></g><g id="ProcessOnG1045"><path id="ProcessOnPath1046" d="M461.0 313.4179104477612L532.0 313.4179104477612L532.0 280.2360679774998" stroke="#323232" stroke-width="2.0" stroke-dasharray="none" fill="none" marker-end="url(#ProcessOnMarker1047)"/><g id="ProcessOnG1049" transform="matrix(1.0,0.0,0.0,1.0,513.0909212351307,305.2929104477612)"><path id="ProcessOnPath1050" d="M0 0H84.0V16.25H0Z" fill="#fff" transform="matrix(1.0,0.0,0.0,1.0,-42.0,0.0)"/><text id="ProcessOnText1051" fill="#000000" font-size="13" x="0.0" y="13.325" font-family="微软雅黑" font-weight="normal" font-style="normal" text-decoration="none" family="微软雅黑" text-anchor="middle" size="13">move&amp;collide</text></g></g><g id="ProcessOnG1052"><path id="ProcessOnPath1053" d="M461.0 230.0L479.0 230.0L479.0 230.0L481.7639320225002 230.0" stroke="#323232" stroke-width="2.0" stroke-dasharray="none" fill="none" marker-end="url(#ProcessOnMarker1054)"/><g id="ProcessOnG1056" transform="matrix(1.0,0.0,0.0,1.0,471.38196601125014,221.875)"><path id="ProcessOnPath1057" d="M0 0H23.0V16.25H0Z" fill="#fff" transform="matrix(1.0,0.0,0.0,1.0,-11.5,0.0)"/><text id="ProcessOnText1058" fill="#000000" font-size="13" x="0.0" y="13.325" font-family="微软雅黑" font-weight="normal" font-style="normal" text-decoration="none" family="微软雅黑" text-anchor="middle" size="13">add</text></g></g><g id="ProcessOnG1059"><path id="ProcessOnPath1060" d="M532.0 195.0L532.0 148.5L476.2360679774998 148.5" stroke="#323232" stroke-width="2.0" stroke-dasharray="none" fill="none" marker-end="url(#ProcessOnMarker1061)"/><g id="ProcessOnG1063" transform="matrix(1.0,0.0,0.0,1.0,527.3680339887499,140.375)"><path id="ProcessOnPath1064" d="M0 0H30.0V16.25H0Z" fill="#fff" transform="matrix(1.0,0.0,0.0,1.0,-15.0,0.0)"/><text id="ProcessOnText1065" fill="#000000" font-size="13" x="0.0" y="13.325" font-family="微软雅黑" font-weight="normal" font-style="normal" text-decoration="none" family="微软雅黑" text-anchor="middle" size="13">draw</text></g></g><g id="ProcessOnG1066"><path id="ProcessOnPath1067" d="M336.0 148.5L283.1126373626374 148.5L283.1126373626374 217.40671641791045L245.46134270277454 217.40671641791045" stroke="#323232" stroke-width="2.0" stroke-dasharray="none" fill="none" marker-end="url(#ProcessOnMarker1068)"/></g></g></g></svg>